<?xml version="1.0"?>
<svg xmlns="http://www.w3.org/2000/svg" xmlns:xlink="http://www.w3.org/1999/xlink" xmlns:svgjs="http://svgjs.com/svgjs" version="1.1" width="512" height="512" x="0" y="0" viewBox="0 0 511 512" style="enable-background:new 0 0 512 512" xml:space="preserve" class=""><g><path xmlns="http://www.w3.org/2000/svg" d="m397.207031 19.984375v236.015625h-389.121093v-236.015625c0-6.851563 5.554687-12.40625 12.40625-12.40625h364.308593c6.851563 0 12.40625 5.554687 12.40625 12.40625zm0 0" fill="#fff5f4" data-original="#fff5f4" style=""/><path xmlns="http://www.w3.org/2000/svg" d="m397.203125 217.886719v38.113281h-389.125v-236.007812c0-6.863282 5.558594-12.414063 12.414063-12.414063h22.960937v202.660156c0 4.226563 3.425781 7.648438 7.648437 7.648438zm0 0" fill="#ebe0da" data-original="#ebe0da" style="" class=""/><path xmlns="http://www.w3.org/2000/svg" d="m8.085938 492.015625v-236.015625h389.121093v236.015625c0 6.851563-5.554687 12.40625-12.410156 12.40625h-364.304687c-6.851563 0-12.40625-5.554687-12.40625-12.40625zm0 0" fill="#fff5f4" data-original="#fff5f4" style=""/><path xmlns="http://www.w3.org/2000/svg" d="m489.863281 430.464844h-223.601562c-6.851563 0-12.410157-5.558594-12.410157-12.410156v-364.304688c0-6.851562 5.558594-12.410156 12.410157-12.410156h223.601562c6.855469 0 12.410157 5.558594 12.410157 12.410156v364.304688c0 6.851562-5.554688 12.410156-12.410157 12.410156zm0 0" fill="#0a7dd9" data-original="#93dcfc" style="" class=""/><path xmlns="http://www.w3.org/2000/svg" d="m161.296875 465.109375h-116.460937c-3.378907 0-6.113282-2.738281-6.113282-6.117187v-157.5625c0-3.375 2.734375-6.113282 6.113282-6.113282h116.460937c3.378906 0 6.113281 2.738282 6.113281 6.113282v157.5625c0 3.378906-2.738281 6.117187-6.113281 6.117187zm0 0" fill="#0a7dd9" data-original="#93dcfc" style="" class=""/><path xmlns="http://www.w3.org/2000/svg" d="m62.726562 465.109375h80.675782c0-50.128906-25.511719-71.59375-25.511719-71.59375-.144531 0-.277344 0-.417969 0 11.972656-5.472656 20.292969-17.542969 20.292969-31.5625 0-19.164063-15.535156-34.699219-34.699219-34.699219-19.164062 0-34.699218 15.535156-34.699218 34.699219 0 14.019531 8.324218 26.089844 20.292968 31.5625-.140625 0-.273437 0-.417968 0 0 0-25.515626 21.464844-25.515626 71.59375zm0 0" fill="#8e8391" data-original="#8e8391" style="" class=""/><path xmlns="http://www.w3.org/2000/svg" d="m301.636719 394.863281c-6.851563 0-12.410157-5.558593-12.410157-12.410156v-341.117187h-22.964843c-6.851563 0-12.410157 5.558593-12.410157 12.410156v364.304687c0 6.859375 5.558594 12.410157 12.410157 12.410157h223.597656c6.855469 0 12.414063-5.550782 12.414063-12.410157v-23.1875zm0 0" fill="#0a7dd9" data-original="#72d1fb" style="" class=""/><path xmlns="http://www.w3.org/2000/svg" d="m112.007812 393.519531h-.425781s-25.507812 21.457031-25.507812 71.585938h-23.347657c0-50.128907 25.519532-71.585938 25.519532-71.585938h.414062c-11.976562-5.476562-20.292968-17.542969-20.292968-31.570312 0-19.164063 15.53125-34.699219 34.695312-34.699219 4.09375 0 8.023438.707031 11.671875 2.011719-13.421875 4.800781-23.023437 17.617187-23.023437 32.6875 0 14.027343 8.320312 26.09375 20.296874 31.570312zm0 0" fill="#766d78" data-original="#766d78" style="" class=""/><path xmlns="http://www.w3.org/2000/svg" d="m489.859375 33.757812h-85.074219v-13.765624c0-11.027344-8.964844-19.992188-19.992187-19.992188h-364.300781c-11.015626 0-19.992188 8.964844-19.992188 19.992188v116.285156c0 4.195312 3.394531 7.578125 7.578125 7.578125 4.195313 0 7.582031-3.382813 7.582031-7.578125v-116.285156c0-2.667969 2.171875-4.832032 4.832032-4.832032h364.300781c2.667969 0 4.832031 2.164063 4.832031 4.832032v13.765624h-42.8125c-4.183594 0-7.578125 3.394532-7.578125 7.578126 0 4.195312 3.394531 7.578124 7.578125 7.578124h143.046875c2.671875 0 4.832031 2.175782 4.832031 4.832032v364.304687c0 2.667969-2.160156 4.828125-4.832031 4.828125-5.121094 0-217.019531 0-223.597656 0-2.667969 0-4.828125-2.160156-4.828125-4.828125 0-8.074219 0-163.21875 0-169.628906v-194.675781c0-2.65625 2.160156-4.832032 4.828125-4.832032h50.230469c4.195312 0 7.582031-3.382812 7.582031-7.578124 0-4.183594-3.386719-7.578126-7.582031-7.578126h-50.230469c-11.023438 0-19.988281 8.972657-19.988281 19.988282v194.675781h-230.613282v-81.824219c0-4.183594-3.386718-7.582031-7.582031-7.582031-4.183594 0-7.578125 3.398437-7.578125 7.582031v325.410156c0 11.027344 8.976562 19.992188 19.992188 19.992188h364.300781c11.027343 0 19.992187-8.964844 19.992187-19.992188v-53.96875h85.074219c11.027344 0 19.992187-8.964843 19.992187-19.988281v-364.304687c0-11.015625-8.964843-19.988282-19.992187-19.988282zm-100.234375 458.25c0 2.667969-2.164062 4.832032-4.832031 4.832032h-364.300781c-2.660157 0-4.832032-2.164063-4.832032-4.832032v-228.429687h230.613282v154.472656c0 11.023438 8.964843 19.988281 19.988281 19.988281h123.363281zm0 0" fill="#000000" data-original="#000000" style="" class=""/><path xmlns="http://www.w3.org/2000/svg" d="m289.023438 279.339844c26.855468 55.203125 95.527343 71.703125 144.058593 39.3125 73.445313-48.246094 51.410157-163.929688-36.5625-180.195313-77.40625-15.152343-143.941406 65.878907-107.496093 140.882813zm116.375 35.074218c6.300781-6.472656 11.734374-13.765624 16.191406-21.714843 3.585937 1.949219 7.050781 4.128906 10.363281 6.566406-7.964844 6.792969-16.820313 11.773437-26.554687 15.148437zm37.988281-26.75c-4.730469-3.640624-9.730469-6.863281-14.953125-9.640624 4.015625-10.582032 6.503906-21.996094 7.289062-33.941407h25.0625c-1.476562 16.242188-7.566406 31.253907-17.398437 43.582031zm17.34375-59.75h-24.988281c-.765626-12.015624-3.265626-23.515624-7.339844-34.179687 5.183594-2.757813 10.148437-5.953125 14.847656-9.558594 9.75 12.242188 15.902344 27.273438 17.480469 43.738281zm-28.914063-55.34375c-3.292968 2.410157-6.738281 4.574219-10.296875 6.507813-4.425781-7.839844-9.804687-15.042969-16.050781-21.460937 10.070312 3.515624 18.582031 8.363281 26.347656 14.953124zm-45.492187-10.582031c8.117187 6.574219 14.917969 14.550781 20.234375 23.5625-6.53125 2.144531-13.316406 3.535157-20.234375 4.148438zm0 43.925781c9.34375-.707031 18.488281-2.628906 27.230469-5.6875 3.234374 8.660157 5.269531 17.964844 5.988281 27.683594h-33.21875zm0 38.167969h33.195312c-.734375 9.644531-2.75 18.863281-5.925781 27.441407-8.753906-3.0625-17.910156-4.988282-27.269531-5.695313zm0 37.957031c6.949219.617188 13.761719 2.019532 20.316406 4.175782-5.332031 9.113281-12.167969 17.152344-20.316406 23.753906zm-90.882813-37.957031h25.257813c.8125 11.832031 3.371093 23.246094 7.464843 33.875-5.21875 2.769531-10.21875 5.980469-14.949218 9.609375-10.28125-12.949218-16.195313-28.367187-17.773438-43.484375zm29.097656 55.171875c3.355469-2.46875 6.871094-4.675781 10.507813-6.644531 4.488281 7.988281 9.9375 15.328125 16.21875 21.828125-9.550781-3.285156-18.542969-8.265625-26.726563-15.183594zm45.613282 10.65625c-8.027344-6.578125-14.824219-14.640625-20.167969-23.742187 6.507813-2.132813 13.273437-3.515625 20.167969-4.128907zm0-44.082031c-9.320313.703125-18.445313 2.613281-27.164063 5.65625-3.242187-8.617187-5.316406-17.839844-6.078125-27.402344h33.242188zm0-37.914063h-33.242188c.773438-9.589843 2.90625-18.894531 6.222656-27.609374 8.675782 3.015624 17.75 4.910156 27.019532 5.609374zm0-65.875v27.660157c-6.832032-.605469-13.535156-1.972657-19.988282-4.070313 5.324219-9.050781 12.078126-17.070312 19.988282-23.589844zm-18.648438-4.71875c-6.28125 6.511719-11.742187 13.894532-16.265625 21.910157-3.613281-1.945313-7.109375-4.128907-10.449219-6.570313 8.824219-7.570312 17.511719-12.230468 26.714844-15.339844zm-23.1875 36.539063c-4.175781 10.726563-6.785156 22.226563-7.609375 34.054687h-25.320312c1.527343-15.566406 7.625-30.609374 18.0625-43.566406 4.707031 3.59375 9.679687 6.769532 14.867187 9.511719zm0 0" fill="#000000" data-original="#000000" style="" class=""/><path xmlns="http://www.w3.org/2000/svg" d="m161.296875 287.734375h-116.460937c-7.550782 0-13.695313 6.144531-13.695313 13.695313v157.5625c0 7.550781 6.144531 13.691406 13.695313 13.691406h116.460937c7.550781 0 13.695313-6.140625 13.695313-13.691406v-157.5625c0-7.550782-6.144532-13.695313-13.695313-13.695313zm-90.777344 169.792969c1.738281-31.363282 14.035157-48.796875 19.738281-55.273438 8.449219 2.683594 17.429688 2.597656 25.597657 0 5.671875 6.476563 18.011719 23.980469 19.757812 55.273438zm5.425781-95.578125c0-14.949219 12.167969-27.117188 27.117188-27.117188 14.957031 0 27.125 12.167969 27.125 27.117188 0 20.4375-21.867188 33.488281-39.757812 23.992187-8.601563-4.550781-14.484376-13.59375-14.484376-23.992187zm83.886719 95.578125h-9.039062c-1.640625-32.527344-13.5625-52.726563-21.332031-62.570313 31.03125-24.84375 13.515624-75.285156-26.398438-75.285156-23.304688 0-42.277344 18.96875-42.277344 42.277344 0 13.339843 6.207032 25.253906 15.886719 33.007812-7.769531 9.847657-19.691406 30.042969-21.332031 62.570313h-9.039063v-154.632813h113.53125zm0 0" fill="#000000" data-original="#000000" style="" class=""/><path xmlns="http://www.w3.org/2000/svg" d="m199.023438 302.894531h23.5c4.183593 0 7.578124-3.394531 7.578124-7.578125 0-4.1875-3.394531-7.582031-7.578124-7.582031h-23.5c-4.1875 0-7.578126 3.394531-7.578126 7.582031 0 4.183594 3.390626 7.578125 7.578126 7.578125zm0 0" fill="#000000" data-original="#000000" style="" class=""/><path xmlns="http://www.w3.org/2000/svg" d="m199.023438 345.34375h23.5c4.183593 0 7.578124-3.394531 7.578124-7.582031 0-4.183594-3.394531-7.578125-7.578124-7.578125h-23.5c-4.1875 0-7.578126 3.394531-7.578126 7.578125 0 4.1875 3.390626 7.582031 7.578126 7.582031zm0 0" fill="#000000" data-original="#000000" style="" class=""/><path xmlns="http://www.w3.org/2000/svg" d="m199.023438 387.789062h23.5c4.183593 0 7.578124-3.390624 7.578124-7.578124s-3.394531-7.578126-7.578124-7.578126h-23.5c-4.1875 0-7.578126 3.390626-7.578126 7.578126s3.390626 7.578124 7.578126 7.578124zm0 0" fill="#000000" data-original="#000000" style="" class=""/><path xmlns="http://www.w3.org/2000/svg" d="m283.917969 457.527344h-84.894531c-4.1875 0-7.578126 3.394531-7.578126 7.578125 0 4.1875 3.390626 7.582031 7.578126 7.582031h84.894531c4.1875 0 7.582031-3.394531 7.582031-7.582031 0-4.183594-3.394531-7.578125-7.582031-7.578125zm0 0" fill="#000000" data-original="#000000" style="" class=""/><path xmlns="http://www.w3.org/2000/svg" d="m360.980469 457.527344h-46.742188c-4.183593 0-7.578125 3.394531-7.578125 7.578125 0 4.1875 3.394532 7.582031 7.578125 7.582031h46.742188c4.1875 0 7.582031-3.394531 7.582031-7.582031 0-4.183594-3.394531-7.578125-7.582031-7.578125zm0 0" fill="#000000" data-original="#000000" style="" class=""/></g></svg>
