<svg width="720" height="540" viewBox="0 0 720 540" fill="none" xmlns="http://www.w3.org/2000/svg">
<path d="M0 0H720V540H0V0Z" fill="#002EA7"/>
<mask id="mask0" mask-type="alpha" maskUnits="userSpaceOnUse" x="0" y="0" width="720" height="540">
<path d="M0 0H720V540H0V0Z" fill="#002EA7"/>
</mask>
<g mask="url(#mask0)">
<ellipse cx="664.422" cy="116.5" rx="310.932" ry="310.5" fill="#001682"/>
</g>
<mask id="mask1" mask-type="alpha" maskUnits="userSpaceOnUse" x="0" y="0" width="298" height="540">
<rect width="297.413" height="540" fill="#002EA7"/>
</mask>
<g mask="url(#mask1)">
</g>
<path d="M32.7129 260.406V262.593" stroke="#FFF001" stroke-miterlimit="10" stroke-linecap="round"/>
<path d="M31.6426 261.539H33.867" stroke="#FFF001" stroke-miterlimit="10" stroke-linecap="round"/>
<path d="M20.4375 260.406V262.593" stroke="#FFF001" stroke-miterlimit="10" stroke-linecap="round"/>
<path d="M19.2852 261.539H21.5095" stroke="#FFF001" stroke-miterlimit="10" stroke-linecap="round"/>
<path d="M8.16211 260.406V262.593" stroke="#FFF001" stroke-miterlimit="10" stroke-linecap="round"/>
<path d="M7.00977 261.539H9.23414" stroke="#FFF001" stroke-miterlimit="10" stroke-linecap="round"/>
<path d="M45.0703 260.406V262.593" stroke="#FFF001" stroke-miterlimit="10" stroke-linecap="round"/>
<path d="M43.918 261.539H46.1423" stroke="#FFF001" stroke-miterlimit="10" stroke-linecap="round"/>
<path d="M69.6211 260.406V262.593" stroke="#FFF001" stroke-miterlimit="10" stroke-linecap="round"/>
<path d="M68.5508 261.539H70.7752" stroke="#FFF001" stroke-miterlimit="10" stroke-linecap="round"/>
<path d="M57.3457 260.406V262.593" stroke="#FFF001" stroke-miterlimit="10" stroke-linecap="round"/>
<path d="M56.2754 261.539H58.4998" stroke="#FFF001" stroke-miterlimit="10" stroke-linecap="round"/>
<path d="M81.9805 260.406V262.593" stroke="#FFF001" stroke-miterlimit="10" stroke-linecap="round"/>
<path d="M80.8262 261.539H83.0505" stroke="#FFF001" stroke-miterlimit="10" stroke-linecap="round"/>
<path d="M32.7129 272.473V274.659" stroke="#FFF001" stroke-miterlimit="10" stroke-linecap="round"/>
<path d="M31.6426 273.607H33.867" stroke="#FFF001" stroke-miterlimit="10" stroke-linecap="round"/>
<path d="M20.4375 272.473V274.659" stroke="#FFF001" stroke-miterlimit="10" stroke-linecap="round"/>
<path d="M19.2852 273.605H21.5095" stroke="#FFF001" stroke-miterlimit="10" stroke-linecap="round"/>
<path d="M8.16211 272.473V274.659" stroke="#FFF001" stroke-miterlimit="10" stroke-linecap="round"/>
<path d="M7.00977 273.607H9.23414" stroke="#FFF001" stroke-miterlimit="10" stroke-linecap="round"/>
<path d="M45.0703 272.473V274.659" stroke="#FFF001" stroke-miterlimit="10" stroke-linecap="round"/>
<path d="M43.918 273.605H46.1423" stroke="#FFF001" stroke-miterlimit="10" stroke-linecap="round"/>
<path d="M69.6211 272.473V274.659" stroke="#FFF001" stroke-miterlimit="10" stroke-linecap="round"/>
<path d="M68.5508 273.605H70.7752" stroke="#FFF001" stroke-miterlimit="10" stroke-linecap="round"/>
<path d="M57.3457 272.473V274.659" stroke="#FFF001" stroke-miterlimit="10" stroke-linecap="round"/>
<path d="M56.2754 273.607H58.4998" stroke="#FFF001" stroke-miterlimit="10" stroke-linecap="round"/>
<path d="M81.9805 272.473V274.659" stroke="#FFF001" stroke-miterlimit="10" stroke-linecap="round"/>
<path d="M80.8262 273.607H83.0505" stroke="#FFF001" stroke-miterlimit="10" stroke-linecap="round"/>
<path d="M32.7129 284.619V286.806" stroke="#FFF001" stroke-miterlimit="10" stroke-linecap="round"/>
<path d="M31.6426 285.672H33.867" stroke="#FFF001" stroke-miterlimit="10" stroke-linecap="round"/>
<path d="M20.4375 284.619V286.806" stroke="#FFF001" stroke-miterlimit="10" stroke-linecap="round"/>
<path d="M19.2852 285.672H21.5095" stroke="#FFF001" stroke-miterlimit="10" stroke-linecap="round"/>
<path d="M8.16211 284.619V286.806" stroke="#FFF001" stroke-miterlimit="10" stroke-linecap="round"/>
<path d="M7.00977 285.672H9.23414" stroke="#FFF001" stroke-miterlimit="10" stroke-linecap="round"/>
<path d="M45.0703 284.619V286.806" stroke="#FFF001" stroke-miterlimit="10" stroke-linecap="round"/>
<path d="M43.918 285.672H46.1423" stroke="#FFF001" stroke-miterlimit="10" stroke-linecap="round"/>
<path d="M69.6211 284.619V286.806" stroke="#FFF001" stroke-miterlimit="10" stroke-linecap="round"/>
<path d="M68.5508 285.672H70.7752" stroke="#FFF001" stroke-miterlimit="10" stroke-linecap="round"/>
<path d="M57.3457 284.619V286.806" stroke="#FFF001" stroke-miterlimit="10" stroke-linecap="round"/>
<path d="M56.2754 285.672H58.4998" stroke="#FFF001" stroke-miterlimit="10" stroke-linecap="round"/>
<path d="M81.9805 284.619V286.806" stroke="#FFF001" stroke-miterlimit="10" stroke-linecap="round"/>
<path d="M80.8262 285.672H83.0505" stroke="#FFF001" stroke-miterlimit="10" stroke-linecap="round"/>
<path d="M118.832 260.406V262.593" stroke="#FFF001" stroke-miterlimit="10" stroke-linecap="round"/>
<path d="M117.762 261.539H119.986" stroke="#FFF001" stroke-miterlimit="10" stroke-linecap="round"/>
<path d="M106.557 260.406V262.593" stroke="#FFF001" stroke-miterlimit="10" stroke-linecap="round"/>
<path d="M105.404 261.539H107.629" stroke="#FFF001" stroke-miterlimit="10" stroke-linecap="round"/>
<path d="M94.2812 260.406V262.593" stroke="#FFF001" stroke-miterlimit="10" stroke-linecap="round"/>
<path d="M93.1289 261.539H95.3533" stroke="#FFF001" stroke-miterlimit="10" stroke-linecap="round"/>
<path d="M131.189 260.406V262.593" stroke="#FFF001" stroke-miterlimit="10" stroke-linecap="round"/>
<path d="M130.037 261.539H132.262" stroke="#FFF001" stroke-miterlimit="10" stroke-linecap="round"/>
<path d="M155.74 260.406V262.593" stroke="#FFF001" stroke-miterlimit="10" stroke-linecap="round"/>
<path d="M154.67 261.539H156.894" stroke="#FFF001" stroke-miterlimit="10" stroke-linecap="round"/>
<path d="M143.465 260.406V262.593" stroke="#FFF001" stroke-miterlimit="10" stroke-linecap="round"/>
<path d="M142.395 261.539H144.619" stroke="#FFF001" stroke-miterlimit="10" stroke-linecap="round"/>
<path d="M168.1 260.406V262.593" stroke="#FFF001" stroke-miterlimit="10" stroke-linecap="round"/>
<path d="M166.945 261.539H169.17" stroke="#FFF001" stroke-miterlimit="10" stroke-linecap="round"/>
<path d="M118.832 272.473V274.659" stroke="#FFF001" stroke-miterlimit="10" stroke-linecap="round"/>
<path d="M117.762 273.607H119.986" stroke="#FFF001" stroke-miterlimit="10" stroke-linecap="round"/>
<path d="M106.557 272.473V274.659" stroke="#FFF001" stroke-miterlimit="10" stroke-linecap="round"/>
<path d="M105.404 273.605H107.629" stroke="#FFF001" stroke-miterlimit="10" stroke-linecap="round"/>
<path d="M94.2812 272.473V274.659" stroke="#FFF001" stroke-miterlimit="10" stroke-linecap="round"/>
<path d="M93.1289 273.607H95.3533" stroke="#FFF001" stroke-miterlimit="10" stroke-linecap="round"/>
<path d="M131.189 272.473V274.659" stroke="#FFF001" stroke-miterlimit="10" stroke-linecap="round"/>
<path d="M130.037 273.605H132.261" stroke="#FFF001" stroke-miterlimit="10" stroke-linecap="round"/>
<path d="M155.74 272.473V274.659" stroke="#FFF001" stroke-miterlimit="10" stroke-linecap="round"/>
<path d="M154.67 273.605H156.894" stroke="#FFF001" stroke-miterlimit="10" stroke-linecap="round"/>
<path d="M143.465 272.473V274.659" stroke="#FFF001" stroke-miterlimit="10" stroke-linecap="round"/>
<path d="M142.395 273.607H144.619" stroke="#FFF001" stroke-miterlimit="10" stroke-linecap="round"/>
<path d="M168.1 272.473V274.659" stroke="#FFF001" stroke-miterlimit="10" stroke-linecap="round"/>
<path d="M166.945 273.607H169.17" stroke="#FFF001" stroke-miterlimit="10" stroke-linecap="round"/>
<path d="M118.832 284.619V286.806" stroke="#FFF001" stroke-miterlimit="10" stroke-linecap="round"/>
<path d="M117.762 285.672H119.986" stroke="#FFF001" stroke-miterlimit="10" stroke-linecap="round"/>
<path d="M106.557 284.619V286.806" stroke="#FFF001" stroke-miterlimit="10" stroke-linecap="round"/>
<path d="M105.404 285.672H107.629" stroke="#FFF001" stroke-miterlimit="10" stroke-linecap="round"/>
<path d="M94.2812 284.619V286.806" stroke="#FFF001" stroke-miterlimit="10" stroke-linecap="round"/>
<path d="M93.1289 285.672H95.3533" stroke="#FFF001" stroke-miterlimit="10" stroke-linecap="round"/>
<path d="M131.189 284.619V286.806" stroke="#FFF001" stroke-miterlimit="10" stroke-linecap="round"/>
<path d="M130.037 285.672H132.261" stroke="#FFF001" stroke-miterlimit="10" stroke-linecap="round"/>
<path d="M155.74 284.619V286.806" stroke="#FFF001" stroke-miterlimit="10" stroke-linecap="round"/>
<path d="M154.67 285.672H156.894" stroke="#FFF001" stroke-miterlimit="10" stroke-linecap="round"/>
<path d="M143.465 284.619V286.806" stroke="#FFF001" stroke-miterlimit="10" stroke-linecap="round"/>
<path d="M142.395 285.672H144.619" stroke="#FFF001" stroke-miterlimit="10" stroke-linecap="round"/>
<path d="M168.1 284.619V286.806" stroke="#FFF001" stroke-miterlimit="10" stroke-linecap="round"/>
<path d="M166.945 285.672H169.17" stroke="#FFF001" stroke-miterlimit="10" stroke-linecap="round"/>
<path d="M205.953 260.406V262.593" stroke="#FFF001" stroke-miterlimit="10" stroke-linecap="round"/>
<path d="M204.883 261.539H207.107" stroke="#FFF001" stroke-miterlimit="10" stroke-linecap="round"/>
<path d="M193.678 260.406V262.593" stroke="#FFF001" stroke-miterlimit="10" stroke-linecap="round"/>
<path d="M192.525 261.539H194.75" stroke="#FFF001" stroke-miterlimit="10" stroke-linecap="round"/>
<path d="M181.402 260.406V262.593" stroke="#FFF001" stroke-miterlimit="10" stroke-linecap="round"/>
<path d="M180.25 261.539H182.474" stroke="#FFF001" stroke-miterlimit="10" stroke-linecap="round"/>
<path d="M218.311 260.406V262.593" stroke="#FFF001" stroke-miterlimit="10" stroke-linecap="round"/>
<path d="M217.158 261.539H219.383" stroke="#FFF001" stroke-miterlimit="10" stroke-linecap="round"/>
<path d="M242.861 260.406V262.593" stroke="#FFF001" stroke-miterlimit="10" stroke-linecap="round"/>
<path d="M241.791 261.539H244.015" stroke="#FFF001" stroke-miterlimit="10" stroke-linecap="round"/>
<path d="M230.586 260.406V262.593" stroke="#FFF001" stroke-miterlimit="10" stroke-linecap="round"/>
<path d="M229.516 261.539H231.74" stroke="#FFF001" stroke-miterlimit="10" stroke-linecap="round"/>
<path d="M255.221 260.406V262.593" stroke="#FFF001" stroke-miterlimit="10" stroke-linecap="round"/>
<path d="M254.066 261.539H256.291" stroke="#FFF001" stroke-miterlimit="10" stroke-linecap="round"/>
<path d="M205.953 272.473V274.659" stroke="#FFF001" stroke-miterlimit="10" stroke-linecap="round"/>
<path d="M204.883 273.607H207.107" stroke="#FFF001" stroke-miterlimit="10" stroke-linecap="round"/>
<path d="M193.678 272.473V274.659" stroke="#FFF001" stroke-miterlimit="10" stroke-linecap="round"/>
<path d="M192.525 273.605H194.75" stroke="#FFF001" stroke-miterlimit="10" stroke-linecap="round"/>
<path d="M181.402 272.473V274.659" stroke="#FFF001" stroke-miterlimit="10" stroke-linecap="round"/>
<path d="M180.25 273.607H182.474" stroke="#FFF001" stroke-miterlimit="10" stroke-linecap="round"/>
<path d="M218.311 272.473V274.659" stroke="#FFF001" stroke-miterlimit="10" stroke-linecap="round"/>
<path d="M217.158 273.605H219.383" stroke="#FFF001" stroke-miterlimit="10" stroke-linecap="round"/>
<path d="M242.861 272.473V274.659" stroke="#FFF001" stroke-miterlimit="10" stroke-linecap="round"/>
<path d="M241.791 273.605H244.015" stroke="#FFF001" stroke-miterlimit="10" stroke-linecap="round"/>
<path d="M230.586 272.473V274.659" stroke="#FFF001" stroke-miterlimit="10" stroke-linecap="round"/>
<path d="M229.516 273.607H231.74" stroke="#FFF001" stroke-miterlimit="10" stroke-linecap="round"/>
<path d="M255.221 272.473V274.659" stroke="#FFF001" stroke-miterlimit="10" stroke-linecap="round"/>
<path d="M254.066 273.607H256.291" stroke="#FFF001" stroke-miterlimit="10" stroke-linecap="round"/>
<path d="M205.953 284.619V286.806" stroke="#FFF001" stroke-miterlimit="10" stroke-linecap="round"/>
<path d="M204.883 285.672H207.107" stroke="#FFF001" stroke-miterlimit="10" stroke-linecap="round"/>
<path d="M193.678 284.619V286.806" stroke="#FFF001" stroke-miterlimit="10" stroke-linecap="round"/>
<path d="M192.525 285.672H194.75" stroke="#FFF001" stroke-miterlimit="10" stroke-linecap="round"/>
<path d="M181.402 284.619V286.806" stroke="#FFF001" stroke-miterlimit="10" stroke-linecap="round"/>
<path d="M180.25 285.672H182.474" stroke="#FFF001" stroke-miterlimit="10" stroke-linecap="round"/>
<path d="M218.311 284.619V286.806" stroke="#FFF001" stroke-miterlimit="10" stroke-linecap="round"/>
<path d="M217.158 285.672H219.383" stroke="#FFF001" stroke-miterlimit="10" stroke-linecap="round"/>
<path d="M242.861 284.619V286.806" stroke="#FFF001" stroke-miterlimit="10" stroke-linecap="round"/>
<path d="M241.791 285.672H244.015" stroke="#FFF001" stroke-miterlimit="10" stroke-linecap="round"/>
<path d="M230.586 284.619V286.806" stroke="#FFF001" stroke-miterlimit="10" stroke-linecap="round"/>
<path d="M229.516 285.672H231.74" stroke="#FFF001" stroke-miterlimit="10" stroke-linecap="round"/>
<path d="M255.221 284.619V286.806" stroke="#FFF001" stroke-miterlimit="10" stroke-linecap="round"/>
<path d="M254.066 285.672H256.291" stroke="#FFF001" stroke-miterlimit="10" stroke-linecap="round"/>
<path d="M292.072 260.406V262.593" stroke="#FFF001" stroke-miterlimit="10" stroke-linecap="round"/>
<path d="M291.002 261.539H293.226" stroke="#FFF001" stroke-miterlimit="10" stroke-linecap="round"/>
<path d="M279.797 260.406V262.593" stroke="#FFF001" stroke-miterlimit="10" stroke-linecap="round"/>
<path d="M278.645 261.539H280.869" stroke="#FFF001" stroke-miterlimit="10" stroke-linecap="round"/>
<path d="M267.521 260.406V262.593" stroke="#FFF001" stroke-miterlimit="10" stroke-linecap="round"/>
<path d="M266.369 261.539H268.594" stroke="#FFF001" stroke-miterlimit="10" stroke-linecap="round"/>
<path d="M304.43 260.406V262.593" stroke="#FFF001" stroke-miterlimit="10" stroke-linecap="round"/>
<path d="M303.277 261.539H305.502" stroke="#FFF001" stroke-miterlimit="10" stroke-linecap="round"/>
<path d="M328.98 260.406V262.593" stroke="#FFF001" stroke-miterlimit="10" stroke-linecap="round"/>
<path d="M327.91 261.539H330.135" stroke="#FFF001" stroke-miterlimit="10" stroke-linecap="round"/>
<path d="M316.705 260.406V262.593" stroke="#FFF001" stroke-miterlimit="10" stroke-linecap="round"/>
<path d="M315.635 261.539H317.859" stroke="#FFF001" stroke-miterlimit="10" stroke-linecap="round"/>
<path d="M341.34 260.406V262.593" stroke="#FFF001" stroke-miterlimit="10" stroke-linecap="round"/>
<path d="M340.186 261.539H342.41" stroke="#FFF001" stroke-miterlimit="10" stroke-linecap="round"/>
<path d="M292.072 272.473V274.659" stroke="#FFF001" stroke-miterlimit="10" stroke-linecap="round"/>
<path d="M291.002 273.607H293.226" stroke="#FFF001" stroke-miterlimit="10" stroke-linecap="round"/>
<path d="M279.797 272.473V274.659" stroke="#FFF001" stroke-miterlimit="10" stroke-linecap="round"/>
<path d="M278.645 273.605H280.869" stroke="#FFF001" stroke-miterlimit="10" stroke-linecap="round"/>
<path d="M267.521 272.473V274.659" stroke="#FFF001" stroke-miterlimit="10" stroke-linecap="round"/>
<path d="M266.369 273.607H268.594" stroke="#FFF001" stroke-miterlimit="10" stroke-linecap="round"/>
<path d="M304.43 272.473V274.659" stroke="#FFF001" stroke-miterlimit="10" stroke-linecap="round"/>
<path d="M303.277 273.605H305.502" stroke="#FFF001" stroke-miterlimit="10" stroke-linecap="round"/>
<path d="M328.98 272.473V274.659" stroke="#FFF001" stroke-miterlimit="10" stroke-linecap="round"/>
<path d="M327.91 273.605H330.135" stroke="#FFF001" stroke-miterlimit="10" stroke-linecap="round"/>
<path d="M316.705 272.473V274.659" stroke="#FFF001" stroke-miterlimit="10" stroke-linecap="round"/>
<path d="M315.635 273.607H317.859" stroke="#FFF001" stroke-miterlimit="10" stroke-linecap="round"/>
<path d="M341.34 272.473V274.659" stroke="#FFF001" stroke-miterlimit="10" stroke-linecap="round"/>
<path d="M340.186 273.607H342.41" stroke="#FFF001" stroke-miterlimit="10" stroke-linecap="round"/>
<path d="M292.072 284.619V286.806" stroke="#FFF001" stroke-miterlimit="10" stroke-linecap="round"/>
<path d="M291.002 285.672H293.226" stroke="#FFF001" stroke-miterlimit="10" stroke-linecap="round"/>
<path d="M279.797 284.619V286.806" stroke="#FFF001" stroke-miterlimit="10" stroke-linecap="round"/>
<path d="M278.645 285.672H280.869" stroke="#FFF001" stroke-miterlimit="10" stroke-linecap="round"/>
<path d="M267.521 284.619V286.806" stroke="#FFF001" stroke-miterlimit="10" stroke-linecap="round"/>
<path d="M266.369 285.672H268.594" stroke="#FFF001" stroke-miterlimit="10" stroke-linecap="round"/>
<path d="M304.43 284.619V286.806" stroke="#FFF001" stroke-miterlimit="10" stroke-linecap="round"/>
<path d="M303.277 285.672H305.502" stroke="#FFF001" stroke-miterlimit="10" stroke-linecap="round"/>
<path d="M328.98 284.619V286.806" stroke="#FFF001" stroke-miterlimit="10" stroke-linecap="round"/>
<path d="M327.91 285.672H330.135" stroke="#FFF001" stroke-miterlimit="10" stroke-linecap="round"/>
<path d="M316.705 284.619V286.806" stroke="#FFF001" stroke-miterlimit="10" stroke-linecap="round"/>
<path d="M315.635 285.672H317.859" stroke="#FFF001" stroke-miterlimit="10" stroke-linecap="round"/>
<path d="M341.34 284.619V286.806" stroke="#FFF001" stroke-miterlimit="10" stroke-linecap="round"/>
<path d="M340.186 285.672H342.41" stroke="#FFF001" stroke-miterlimit="10" stroke-linecap="round"/>
<path d="M32.7129 296.826V299.013" stroke="#FFF001" stroke-miterlimit="10" stroke-linecap="round"/>
<path d="M31.6426 297.959H33.867" stroke="#FFF001" stroke-miterlimit="10" stroke-linecap="round"/>
<path d="M20.4375 296.826V299.013" stroke="#FFF001" stroke-miterlimit="10" stroke-linecap="round"/>
<path d="M19.2852 297.959H21.5095" stroke="#FFF001" stroke-miterlimit="10" stroke-linecap="round"/>
<path d="M8.16211 296.826V299.013" stroke="#FFF001" stroke-miterlimit="10" stroke-linecap="round"/>
<path d="M7.00977 297.959H9.23414" stroke="#FFF001" stroke-miterlimit="10" stroke-linecap="round"/>
<path d="M45.0703 296.826V299.013" stroke="#FFF001" stroke-miterlimit="10" stroke-linecap="round"/>
<path d="M43.918 297.959H46.1423" stroke="#FFF001" stroke-miterlimit="10" stroke-linecap="round"/>
<path d="M69.6211 296.826V299.013" stroke="#FFF001" stroke-miterlimit="10" stroke-linecap="round"/>
<path d="M68.5508 297.959H70.7752" stroke="#FFF001" stroke-miterlimit="10" stroke-linecap="round"/>
<path d="M57.3457 296.826V299.013" stroke="#FFF001" stroke-miterlimit="10" stroke-linecap="round"/>
<path d="M56.2754 297.959H58.4998" stroke="#FFF001" stroke-miterlimit="10" stroke-linecap="round"/>
<path d="M81.9805 296.826V299.013" stroke="#FFF001" stroke-miterlimit="10" stroke-linecap="round"/>
<path d="M80.8262 297.959H83.0505" stroke="#FFF001" stroke-miterlimit="10" stroke-linecap="round"/>
<path d="M32.7129 308.893V311.079" stroke="#FFF001" stroke-miterlimit="10" stroke-linecap="round"/>
<path d="M31.6426 310.025H33.867" stroke="#FFF001" stroke-miterlimit="10" stroke-linecap="round"/>
<path d="M20.4375 308.893V311.079" stroke="#FFF001" stroke-miterlimit="10" stroke-linecap="round"/>
<path d="M19.2852 310.025H21.5095" stroke="#FFF001" stroke-miterlimit="10" stroke-linecap="round"/>
<path d="M8.16211 308.893V311.079" stroke="#FFF001" stroke-miterlimit="10" stroke-linecap="round"/>
<path d="M7.00977 310.025H9.23414" stroke="#FFF001" stroke-miterlimit="10" stroke-linecap="round"/>
<path d="M45.0703 308.893V311.079" stroke="#FFF001" stroke-miterlimit="10" stroke-linecap="round"/>
<path d="M43.918 310.025H46.1423" stroke="#FFF001" stroke-miterlimit="10" stroke-linecap="round"/>
<path d="M69.6211 308.893V311.079" stroke="#FFF001" stroke-miterlimit="10" stroke-linecap="round"/>
<path d="M68.5508 310.025H70.7752" stroke="#FFF001" stroke-miterlimit="10" stroke-linecap="round"/>
<path d="M57.3457 308.893V311.079" stroke="#FFF001" stroke-miterlimit="10" stroke-linecap="round"/>
<path d="M56.2754 310.025H58.4998" stroke="#FFF001" stroke-miterlimit="10" stroke-linecap="round"/>
<path d="M81.9805 308.893V311.079" stroke="#FFF001" stroke-miterlimit="10" stroke-linecap="round"/>
<path d="M80.8262 310.025H83.0505" stroke="#FFF001" stroke-miterlimit="10" stroke-linecap="round"/>
<path d="M32.7129 321.039V323.226" stroke="#FFF001" stroke-miterlimit="10" stroke-linecap="round"/>
<path d="M31.6426 322.092H33.867" stroke="#FFF001" stroke-miterlimit="10" stroke-linecap="round"/>
<path d="M20.4375 321.039V323.226" stroke="#FFF001" stroke-miterlimit="10" stroke-linecap="round"/>
<path d="M19.2852 322.092H21.5095" stroke="#FFF001" stroke-miterlimit="10" stroke-linecap="round"/>
<path d="M8.16211 321.039V323.226" stroke="#FFF001" stroke-miterlimit="10" stroke-linecap="round"/>
<path d="M7.00977 322.092H9.23414" stroke="#FFF001" stroke-miterlimit="10" stroke-linecap="round"/>
<path d="M45.0703 321.039V323.226" stroke="#FFF001" stroke-miterlimit="10" stroke-linecap="round"/>
<path d="M43.918 322.092H46.1423" stroke="#FFF001" stroke-miterlimit="10" stroke-linecap="round"/>
<path d="M69.6211 321.039V323.226" stroke="#FFF001" stroke-miterlimit="10" stroke-linecap="round"/>
<path d="M68.5508 322.092H70.7752" stroke="#FFF001" stroke-miterlimit="10" stroke-linecap="round"/>
<path d="M57.3457 321.039V323.226" stroke="#FFF001" stroke-miterlimit="10" stroke-linecap="round"/>
<path d="M56.2754 322.092H58.4998" stroke="#FFF001" stroke-miterlimit="10" stroke-linecap="round"/>
<path d="M81.9805 321.039V323.226" stroke="#FFF001" stroke-miterlimit="10" stroke-linecap="round"/>
<path d="M80.8262 322.092H83.0505" stroke="#FFF001" stroke-miterlimit="10" stroke-linecap="round"/>
<path d="M118.832 296.826V299.013" stroke="#FFF001" stroke-miterlimit="10" stroke-linecap="round"/>
<path d="M117.762 297.959H119.986" stroke="#FFF001" stroke-miterlimit="10" stroke-linecap="round"/>
<path d="M106.557 296.826V299.013" stroke="#FFF001" stroke-miterlimit="10" stroke-linecap="round"/>
<path d="M105.404 297.959H107.629" stroke="#FFF001" stroke-miterlimit="10" stroke-linecap="round"/>
<path d="M94.2812 296.826V299.013" stroke="#FFF001" stroke-miterlimit="10" stroke-linecap="round"/>
<path d="M93.1289 297.959H95.3533" stroke="#FFF001" stroke-miterlimit="10" stroke-linecap="round"/>
<path d="M131.189 296.826V299.013" stroke="#FFF001" stroke-miterlimit="10" stroke-linecap="round"/>
<path d="M130.037 297.959H132.262" stroke="#FFF001" stroke-miterlimit="10" stroke-linecap="round"/>
<path d="M155.74 296.826V299.013" stroke="#FFF001" stroke-miterlimit="10" stroke-linecap="round"/>
<path d="M154.67 297.959H156.894" stroke="#FFF001" stroke-miterlimit="10" stroke-linecap="round"/>
<path d="M143.465 296.826V299.013" stroke="#FFF001" stroke-miterlimit="10" stroke-linecap="round"/>
<path d="M142.395 297.959H144.619" stroke="#FFF001" stroke-miterlimit="10" stroke-linecap="round"/>
<path d="M168.1 296.826V299.013" stroke="#FFF001" stroke-miterlimit="10" stroke-linecap="round"/>
<path d="M166.945 297.959H169.17" stroke="#FFF001" stroke-miterlimit="10" stroke-linecap="round"/>
<path d="M118.832 308.893V311.079" stroke="#FFF001" stroke-miterlimit="10" stroke-linecap="round"/>
<path d="M117.762 310.025H119.986" stroke="#FFF001" stroke-miterlimit="10" stroke-linecap="round"/>
<path d="M106.557 308.893V311.079" stroke="#FFF001" stroke-miterlimit="10" stroke-linecap="round"/>
<path d="M105.404 310.025H107.629" stroke="#FFF001" stroke-miterlimit="10" stroke-linecap="round"/>
<path d="M94.2812 308.893V311.079" stroke="#FFF001" stroke-miterlimit="10" stroke-linecap="round"/>
<path d="M93.1289 310.025H95.3533" stroke="#FFF001" stroke-miterlimit="10" stroke-linecap="round"/>
<path d="M131.189 308.893V311.079" stroke="#FFF001" stroke-miterlimit="10" stroke-linecap="round"/>
<path d="M130.037 310.025H132.261" stroke="#FFF001" stroke-miterlimit="10" stroke-linecap="round"/>
<path d="M155.74 308.893V311.079" stroke="#FFF001" stroke-miterlimit="10" stroke-linecap="round"/>
<path d="M154.67 310.025H156.894" stroke="#FFF001" stroke-miterlimit="10" stroke-linecap="round"/>
<path d="M143.465 308.893V311.079" stroke="#FFF001" stroke-miterlimit="10" stroke-linecap="round"/>
<path d="M142.395 310.025H144.619" stroke="#FFF001" stroke-miterlimit="10" stroke-linecap="round"/>
<path d="M168.1 308.893V311.079" stroke="#FFF001" stroke-miterlimit="10" stroke-linecap="round"/>
<path d="M166.945 310.025H169.17" stroke="#FFF001" stroke-miterlimit="10" stroke-linecap="round"/>
<path d="M118.832 321.039V323.226" stroke="#FFF001" stroke-miterlimit="10" stroke-linecap="round"/>
<path d="M117.762 322.092H119.986" stroke="#FFF001" stroke-miterlimit="10" stroke-linecap="round"/>
<path d="M106.557 321.039V323.226" stroke="#FFF001" stroke-miterlimit="10" stroke-linecap="round"/>
<path d="M105.404 322.092H107.629" stroke="#FFF001" stroke-miterlimit="10" stroke-linecap="round"/>
<path d="M94.2812 321.039V323.226" stroke="#FFF001" stroke-miterlimit="10" stroke-linecap="round"/>
<path d="M93.1289 322.092H95.3533" stroke="#FFF001" stroke-miterlimit="10" stroke-linecap="round"/>
<path d="M131.189 321.039V323.226" stroke="#FFF001" stroke-miterlimit="10" stroke-linecap="round"/>
<path d="M130.037 322.092H132.261" stroke="#FFF001" stroke-miterlimit="10" stroke-linecap="round"/>
<path d="M155.74 321.039V323.226" stroke="#FFF001" stroke-miterlimit="10" stroke-linecap="round"/>
<path d="M154.67 322.092H156.894" stroke="#FFF001" stroke-miterlimit="10" stroke-linecap="round"/>
<path d="M143.465 321.039V323.226" stroke="#FFF001" stroke-miterlimit="10" stroke-linecap="round"/>
<path d="M142.395 322.092H144.619" stroke="#FFF001" stroke-miterlimit="10" stroke-linecap="round"/>
<path d="M168.1 321.039V323.226" stroke="#FFF001" stroke-miterlimit="10" stroke-linecap="round"/>
<path d="M166.945 322.092H169.17" stroke="#FFF001" stroke-miterlimit="10" stroke-linecap="round"/>
<path d="M205.953 296.826V299.013" stroke="#FFF001" stroke-miterlimit="10" stroke-linecap="round"/>
<path d="M204.883 297.959H207.107" stroke="#FFF001" stroke-miterlimit="10" stroke-linecap="round"/>
<path d="M193.678 296.826V299.013" stroke="#FFF001" stroke-miterlimit="10" stroke-linecap="round"/>
<path d="M192.525 297.959H194.75" stroke="#FFF001" stroke-miterlimit="10" stroke-linecap="round"/>
<path d="M181.402 296.826V299.013" stroke="#FFF001" stroke-miterlimit="10" stroke-linecap="round"/>
<path d="M180.25 297.959H182.474" stroke="#FFF001" stroke-miterlimit="10" stroke-linecap="round"/>
<path d="M218.311 296.826V299.013" stroke="#FFF001" stroke-miterlimit="10" stroke-linecap="round"/>
<path d="M217.158 297.959H219.383" stroke="#FFF001" stroke-miterlimit="10" stroke-linecap="round"/>
<path d="M242.861 296.826V299.013" stroke="#FFF001" stroke-miterlimit="10" stroke-linecap="round"/>
<path d="M241.791 297.959H244.015" stroke="#FFF001" stroke-miterlimit="10" stroke-linecap="round"/>
<path d="M230.586 296.826V299.013" stroke="#FFF001" stroke-miterlimit="10" stroke-linecap="round"/>
<path d="M229.516 297.959H231.74" stroke="#FFF001" stroke-miterlimit="10" stroke-linecap="round"/>
<path d="M255.221 296.826V299.013" stroke="#FFF001" stroke-miterlimit="10" stroke-linecap="round"/>
<path d="M254.066 297.959H256.291" stroke="#FFF001" stroke-miterlimit="10" stroke-linecap="round"/>
<path d="M205.953 308.893V311.079" stroke="#FFF001" stroke-miterlimit="10" stroke-linecap="round"/>
<path d="M204.883 310.025H207.107" stroke="#FFF001" stroke-miterlimit="10" stroke-linecap="round"/>
<path d="M193.678 308.893V311.079" stroke="#FFF001" stroke-miterlimit="10" stroke-linecap="round"/>
<path d="M192.525 310.025H194.75" stroke="#FFF001" stroke-miterlimit="10" stroke-linecap="round"/>
<path d="M181.402 308.893V311.079" stroke="#FFF001" stroke-miterlimit="10" stroke-linecap="round"/>
<path d="M180.25 310.025H182.474" stroke="#FFF001" stroke-miterlimit="10" stroke-linecap="round"/>
<path d="M218.311 308.893V311.079" stroke="#FFF001" stroke-miterlimit="10" stroke-linecap="round"/>
<path d="M217.158 310.025H219.383" stroke="#FFF001" stroke-miterlimit="10" stroke-linecap="round"/>
<path d="M242.861 308.893V311.079" stroke="#FFF001" stroke-miterlimit="10" stroke-linecap="round"/>
<path d="M241.791 310.025H244.015" stroke="#FFF001" stroke-miterlimit="10" stroke-linecap="round"/>
<path d="M230.586 308.893V311.079" stroke="#FFF001" stroke-miterlimit="10" stroke-linecap="round"/>
<path d="M229.516 310.025H231.74" stroke="#FFF001" stroke-miterlimit="10" stroke-linecap="round"/>
<path d="M255.221 308.893V311.079" stroke="#FFF001" stroke-miterlimit="10" stroke-linecap="round"/>
<path d="M254.066 310.025H256.291" stroke="#FFF001" stroke-miterlimit="10" stroke-linecap="round"/>
<path d="M205.953 321.039V323.226" stroke="#FFF001" stroke-miterlimit="10" stroke-linecap="round"/>
<path d="M204.883 322.092H207.107" stroke="#FFF001" stroke-miterlimit="10" stroke-linecap="round"/>
<path d="M193.678 321.039V323.226" stroke="#FFF001" stroke-miterlimit="10" stroke-linecap="round"/>
<path d="M192.525 322.092H194.75" stroke="#FFF001" stroke-miterlimit="10" stroke-linecap="round"/>
<path d="M181.402 321.039V323.226" stroke="#FFF001" stroke-miterlimit="10" stroke-linecap="round"/>
<path d="M180.25 322.092H182.474" stroke="#FFF001" stroke-miterlimit="10" stroke-linecap="round"/>
<path d="M218.311 321.039V323.226" stroke="#FFF001" stroke-miterlimit="10" stroke-linecap="round"/>
<path d="M217.158 322.092H219.383" stroke="#FFF001" stroke-miterlimit="10" stroke-linecap="round"/>
<path d="M242.861 321.039V323.226" stroke="#FFF001" stroke-miterlimit="10" stroke-linecap="round"/>
<path d="M241.791 322.092H244.015" stroke="#FFF001" stroke-miterlimit="10" stroke-linecap="round"/>
<path d="M230.586 321.039V323.226" stroke="#FFF001" stroke-miterlimit="10" stroke-linecap="round"/>
<path d="M229.516 322.092H231.74" stroke="#FFF001" stroke-miterlimit="10" stroke-linecap="round"/>
<path d="M255.221 321.039V323.226" stroke="#FFF001" stroke-miterlimit="10" stroke-linecap="round"/>
<path d="M254.066 322.092H256.291" stroke="#FFF001" stroke-miterlimit="10" stroke-linecap="round"/>
<path d="M292.072 296.826V299.013" stroke="#FFF001" stroke-miterlimit="10" stroke-linecap="round"/>
<path d="M291.002 297.959H293.226" stroke="#FFF001" stroke-miterlimit="10" stroke-linecap="round"/>
<path d="M279.797 296.826V299.013" stroke="#FFF001" stroke-miterlimit="10" stroke-linecap="round"/>
<path d="M278.645 297.959H280.869" stroke="#FFF001" stroke-miterlimit="10" stroke-linecap="round"/>
<path d="M267.521 296.826V299.013" stroke="#FFF001" stroke-miterlimit="10" stroke-linecap="round"/>
<path d="M266.369 297.959H268.594" stroke="#FFF001" stroke-miterlimit="10" stroke-linecap="round"/>
<path d="M304.43 296.826V299.013" stroke="#FFF001" stroke-miterlimit="10" stroke-linecap="round"/>
<path d="M303.277 297.959H305.502" stroke="#FFF001" stroke-miterlimit="10" stroke-linecap="round"/>
<path d="M328.98 296.826V299.013" stroke="#FFF001" stroke-miterlimit="10" stroke-linecap="round"/>
<path d="M327.91 297.959H330.135" stroke="#FFF001" stroke-miterlimit="10" stroke-linecap="round"/>
<path d="M316.705 296.826V299.013" stroke="#FFF001" stroke-miterlimit="10" stroke-linecap="round"/>
<path d="M315.635 297.959H317.859" stroke="#FFF001" stroke-miterlimit="10" stroke-linecap="round"/>
<path d="M341.34 296.826V299.013" stroke="#FFF001" stroke-miterlimit="10" stroke-linecap="round"/>
<path d="M340.186 297.959H342.41" stroke="#FFF001" stroke-miterlimit="10" stroke-linecap="round"/>
<path d="M292.072 308.893V311.079" stroke="#FFF001" stroke-miterlimit="10" stroke-linecap="round"/>
<path d="M291.002 310.025H293.226" stroke="#FFF001" stroke-miterlimit="10" stroke-linecap="round"/>
<path d="M279.797 308.893V311.079" stroke="#FFF001" stroke-miterlimit="10" stroke-linecap="round"/>
<path d="M278.645 310.025H280.869" stroke="#FFF001" stroke-miterlimit="10" stroke-linecap="round"/>
<path d="M267.521 308.893V311.079" stroke="#FFF001" stroke-miterlimit="10" stroke-linecap="round"/>
<path d="M266.369 310.025H268.594" stroke="#FFF001" stroke-miterlimit="10" stroke-linecap="round"/>
<path d="M304.43 308.893V311.079" stroke="#FFF001" stroke-miterlimit="10" stroke-linecap="round"/>
<path d="M303.277 310.025H305.502" stroke="#FFF001" stroke-miterlimit="10" stroke-linecap="round"/>
<path d="M328.98 308.893V311.079" stroke="#FFF001" stroke-miterlimit="10" stroke-linecap="round"/>
<path d="M327.91 310.025H330.135" stroke="#FFF001" stroke-miterlimit="10" stroke-linecap="round"/>
<path d="M316.705 308.893V311.079" stroke="#FFF001" stroke-miterlimit="10" stroke-linecap="round"/>
<path d="M315.635 310.025H317.859" stroke="#FFF001" stroke-miterlimit="10" stroke-linecap="round"/>
<path d="M341.34 308.893V311.079" stroke="#FFF001" stroke-miterlimit="10" stroke-linecap="round"/>
<path d="M340.186 310.025H342.41" stroke="#FFF001" stroke-miterlimit="10" stroke-linecap="round"/>
<path d="M292.072 321.039V323.226" stroke="#FFF001" stroke-miterlimit="10" stroke-linecap="round"/>
<path d="M291.002 322.092H293.226" stroke="#FFF001" stroke-miterlimit="10" stroke-linecap="round"/>
<path d="M279.797 321.039V323.226" stroke="#FFF001" stroke-miterlimit="10" stroke-linecap="round"/>
<path d="M278.645 322.092H280.869" stroke="#FFF001" stroke-miterlimit="10" stroke-linecap="round"/>
<path d="M267.521 321.039V323.226" stroke="#FFF001" stroke-miterlimit="10" stroke-linecap="round"/>
<path d="M266.369 322.092H268.594" stroke="#FFF001" stroke-miterlimit="10" stroke-linecap="round"/>
<path d="M304.43 321.039V323.226" stroke="#FFF001" stroke-miterlimit="10" stroke-linecap="round"/>
<path d="M303.277 322.092H305.502" stroke="#FFF001" stroke-miterlimit="10" stroke-linecap="round"/>
<path d="M328.98 321.039V323.226" stroke="#FFF001" stroke-miterlimit="10" stroke-linecap="round"/>
<path d="M327.91 322.092H330.135" stroke="#FFF001" stroke-miterlimit="10" stroke-linecap="round"/>
<path d="M316.705 321.039V323.226" stroke="#FFF001" stroke-miterlimit="10" stroke-linecap="round"/>
<path d="M315.635 322.092H317.859" stroke="#FFF001" stroke-miterlimit="10" stroke-linecap="round"/>
<path d="M341.34 321.039V323.226" stroke="#FFF001" stroke-miterlimit="10" stroke-linecap="round"/>
<path d="M340.186 322.092H342.41" stroke="#FFF001" stroke-miterlimit="10" stroke-linecap="round"/>
<ellipse cx="491.181" cy="291.906" rx="179.75" ry="179.5" fill="#0032EB"/>
<path d="M387.537 221.406V248.406" stroke="#FFF001" stroke-width="4" stroke-miterlimit="10" stroke-linecap="round"/>
<path d="M373.518 235.406H400.555" stroke="#FFF001" stroke-width="4" stroke-miterlimit="10" stroke-linecap="round"/>
<path d="M417.168 156.406V215.406" stroke="#FFF001" stroke-width="7" stroke-miterlimit="10" stroke-linecap="round"/>
<path d="M386.535 186.996H445.617" stroke="#FFF001" stroke-width="7" stroke-miterlimit="10" stroke-linecap="round"/>
<path d="M365.32 210.406V227.406" stroke="#FFF001" stroke-width="3" stroke-miterlimit="10" stroke-linecap="round"/>
<path d="M356.494 219.221H373.518" stroke="#FFF001" stroke-width="3" stroke-miterlimit="10" stroke-linecap="round"/>
<path d="M349.225 240.406V253.406" stroke="#FFF001" stroke-width="2" stroke-miterlimit="10" stroke-linecap="round"/>
<path d="M342.475 247.146H355.493" stroke="#FFF001" stroke-width="2" stroke-miterlimit="10" stroke-linecap="round"/>
<path d="M645.781 97.9766C632.753 97.9766 622.287 108.439 622.287 121.463C622.287 134.487 632.753 144.949 645.781 144.949C658.81 144.949 669.275 134.487 669.275 121.463C669.275 108.439 658.81 97.9766 645.781 97.9766ZM645.781 135.768C637.879 135.768 631.685 129.362 631.685 121.676C631.685 113.99 638.092 107.585 645.781 107.585C653.684 107.585 659.878 113.99 659.878 121.676C659.878 129.362 653.684 135.768 645.781 135.768Z" fill="#F3F3F3"/>
<path d="M693.838 92.8533C693.838 79.8292 683.372 69.3672 670.344 69.3672C657.315 69.3672 646.85 79.8292 646.85 92.8533C646.85 93.2803 646.85 93.7073 646.85 94.1343C647.277 94.1343 647.49 94.1343 647.918 94.1343C650.908 94.1343 653.684 94.7748 656.461 95.6289C656.247 94.7748 656.247 93.9208 656.247 92.8533C656.247 84.9534 662.655 78.7616 670.344 78.7616C678.246 78.7616 684.44 85.1669 684.44 92.8533C684.44 100.753 678.033 106.945 670.344 106.945C670.13 106.945 670.13 106.945 669.917 106.945C671.412 109.721 672.48 112.923 672.907 116.126C684.867 114.845 693.838 105.023 693.838 92.8533Z" fill="#002EA7"/>
<path d="M504.162 24.4062C491.134 24.4062 480.668 34.8682 480.668 47.8923C480.668 60.9164 491.134 71.3784 504.162 71.3784C517.191 71.3784 527.656 60.9164 527.656 47.8923C527.656 34.8682 517.191 24.4062 504.162 24.4062ZM504.162 62.1975C496.26 62.1975 490.066 55.7922 490.066 48.1058C490.066 40.4195 496.473 34.0142 504.162 34.0142C512.065 34.0142 518.259 40.4195 518.259 48.1058C518.259 55.7922 512.065 62.1975 504.162 62.1975Z" fill="#002EA7"/>
<path d="M498.438 47.7617L504.139 38.8145L509.841 47.7617L504.139 51.0153L498.438 47.7617Z" fill="#002EA7"/>
<path d="M504.139 38.8145L509.84 47.7617L504.139 51.0153V38.8145Z" fill="#002EA7"/>
<path d="M498.438 48.9824L504.139 52.236L509.841 48.9824L504.139 56.7096L498.438 48.9824Z" fill="#002EA7"/>
<path d="M504.139 52.2361L509.841 48.9825L504.139 56.7097V52.2361ZM498.438 47.7624L504.139 45.3223L509.841 47.7624L504.139 51.016L498.438 47.7624Z" fill="#002EA7"/>
<path d="M504.139 45.3223L509.84 47.7624L504.139 51.016V45.3223Z" fill="#002EA7"/>
<mask id="mask2" mask-type="alpha" maskUnits="userSpaceOnUse" x="662" y="86" width="17" height="15">
<g clip-path="url(#clip0)">
<path d="M676.473 87.9165L674.463 88.9589L664.759 93.991C664.726 93.7362 664.71 93.4795 664.71 93.2226C664.711 92.1972 664.975 91.19 665.477 90.3007C665.978 89.4114 666.699 88.6709 667.568 88.1525C668.437 87.6341 669.424 87.3558 670.431 87.3451C671.438 87.3345 672.43 87.5919 673.309 88.0919L674.46 87.4952L674.631 87.4061C673.577 86.6275 672.333 86.1606 671.035 86.0571C669.737 85.9536 668.436 86.2175 667.276 86.8196C666.116 87.4218 665.142 88.3387 664.462 89.469C663.782 90.5994 663.422 91.8992 663.422 93.2247C663.422 93.4078 663.429 93.5901 663.443 93.7718C663.462 94.029 663.406 94.2862 663.282 94.5111C663.158 94.736 662.971 94.9185 662.745 95.0356L662.139 95.3504V96.8191L663.924 95.8925L664.503 95.592L665.073 95.2965L675.303 89.9897L676.452 89.3938L678.828 88.1609V86.693L676.473 87.9165ZM678.828 89.6303L665.654 96.4597L664.504 97.0571L662.139 98.2842V99.7514L664.488 98.5329L666.497 97.4905L676.211 92.4512C676.244 92.7077 676.261 92.9661 676.261 93.2247C676.26 94.2512 675.996 95.2598 675.494 96.1501C674.992 97.0405 674.27 97.7818 673.4 98.3003C672.53 98.8189 671.542 99.0968 670.534 99.1063C669.525 99.1158 668.532 98.8567 667.653 98.3546L667.582 98.3927L666.335 99.0397C667.389 99.8184 668.633 100.285 669.931 100.389C671.229 100.493 672.529 100.229 673.689 99.6276C674.849 99.0259 675.823 98.1094 676.503 96.9795C677.184 95.8495 677.544 94.5501 677.545 93.2247C677.545 93.04 677.537 92.8552 677.524 92.6726C677.505 92.4155 677.561 92.1583 677.685 91.9335C677.809 91.7086 677.995 91.5261 678.221 91.4088L678.828 91.0939V89.6303Z" fill="black"/>
</g>
</mask>
<g mask="url(#mask2)">
<ellipse cx="670.483" cy="93.2257" rx="10.0157" ry="9.58508" fill="#002EA7"/>
</g>
<path d="M647.513 123.086V123.084C647.427 123.09 646.983 123.114 645.996 123.114C645.207 123.114 644.653 123.093 644.458 123.084V123.086C641.422 122.962 639.159 122.471 639.159 121.883C639.159 121.296 641.424 120.804 644.458 120.679V122.598C644.655 122.611 645.225 122.642 646.01 122.642C646.953 122.642 647.425 122.605 647.513 122.598V120.681C650.542 120.808 652.8 121.298 652.8 121.885C652.8 122.471 650.54 122.962 647.513 123.088V123.086ZM647.513 120.483V118.767H651.739V116.15H640.234V118.767H644.46V120.483C641.025 120.629 638.443 121.261 638.443 122.018C638.443 122.776 641.027 123.407 644.46 123.556V129.056H647.515V123.556C650.943 123.409 653.521 122.778 653.521 122.02C653.521 121.264 650.943 120.631 647.515 120.484" fill="#F3F3F3"/>
<path d="M539.631 0L538.207 0.810475L534.325 3.03047L532.9 3.84094V11.5228L534.325 12.3333L538.242 14.5533L539.667 15.3638L541.092 14.5533L544.938 12.3333L546.362 11.5228V3.84094L544.938 3.03047L541.056 0.810475L539.631 0ZM535.749 9.90189V5.46189L539.631 3.2419L543.513 5.46189V9.90189L539.631 12.1219L535.749 9.90189Z" fill="#004BEF"/>
<path d="M532.016 82.9629C503.541 82.9629 480.668 105.828 480.668 134.294C480.668 162.759 503.541 185.624 532.016 185.624C560.491 185.624 583.365 162.759 583.365 134.294C583.365 105.828 560.491 82.9629 532.016 82.9629ZM532.016 165.559C514.745 165.559 501.207 151.559 501.207 134.76C501.207 117.961 515.211 103.962 532.016 103.962C549.288 103.962 562.825 117.961 562.825 134.76C562.825 151.559 549.288 165.559 532.016 165.559Z" fill="#F3F3F3"/>
<path d="M537.617 133.828C540.418 132.895 542.285 130.562 542.285 128.229C542.285 124.495 539.485 122.162 534.817 121.696V116.562H529.682V121.696H523.146V147.361H529.682V152.494H534.817V147.361C540.418 147.361 543.686 144.561 543.686 139.895C543.686 136.628 541.352 134.295 537.617 133.828ZM528.748 125.895H533.416C536.217 125.895 537.617 127.295 537.617 129.162C537.617 131.028 536.217 132.428 532.949 132.428H528.748V125.895ZM533.416 143.161H528.748V135.695H533.416C536.684 135.695 538.551 137.095 538.551 139.428C538.084 141.761 536.217 143.161 533.416 143.161Z" fill="#F3F3F3"/>
<path d="M637.046 71.7644C637.046 43.2991 614.173 20.4336 585.698 20.4336C557.223 20.4336 534.35 43.2991 534.35 71.7644C534.35 72.6977 534.35 73.6309 534.35 74.5642C535.283 74.5642 535.75 74.5642 536.684 74.5642C543.219 74.5642 549.287 75.9642 555.356 77.8307C554.889 75.9642 554.889 74.0976 554.889 71.7644C554.889 54.4986 568.893 40.9659 585.698 40.9659C602.97 40.9659 616.507 54.9652 616.507 71.7644C616.507 89.0302 602.503 102.563 585.698 102.563C585.231 102.563 585.231 102.563 584.764 102.563C588.032 108.629 590.366 115.629 591.3 122.628C617.441 119.829 637.046 98.363 637.046 71.7644Z" fill="#002EA7"/>
<path d="M599.666 86.2315L601.534 79.6984H585.196L587.53 71.7655L592.198 69.8989L593.598 65.2325L588.463 67.0991L592.198 53.5664H582.395L577.727 70.8322L573.992 72.2321L572.592 77.3652L576.326 75.9653L573.992 86.2315H599.666Z" fill="#002EA7"/>
<path d="M532.094 169.117C551.647 169.117 567.498 153.288 567.498 133.761C567.498 114.235 551.647 98.4062 532.094 98.4062C512.541 98.4062 496.689 114.235 496.689 133.761C496.689 153.288 512.541 169.117 532.094 169.117Z" fill="#002EA7"/>
<path d="M537.441 132.77C540.096 131.885 541.865 129.674 541.865 127.463C541.865 123.925 539.211 121.713 534.787 121.271V116.406H529.92V121.271H523.727V145.595H529.92V150.46H534.787V145.595C540.096 145.595 543.192 142.941 543.192 138.519C543.192 135.423 540.98 133.212 537.441 132.77ZM529.035 125.251H533.459C536.114 125.251 537.441 126.578 537.441 128.347C537.441 130.116 536.114 131.443 533.017 131.443H529.035V125.251ZM533.459 141.615H529.035V134.539H533.459C536.556 134.539 538.326 135.865 538.326 138.077C537.884 140.288 536.114 141.615 533.459 141.615Z" fill="#F3F3F3"/>
<path d="M490.96 227.406C457.316 227.406 430.291 254.422 430.291 288.054C430.291 321.686 457.316 348.702 490.96 348.702C524.604 348.702 551.629 321.686 551.629 288.054C551.629 254.422 524.604 227.406 490.96 227.406ZM490.96 324.994C470.553 324.994 454.559 308.454 454.559 288.606C454.559 268.757 471.105 252.217 490.96 252.217C511.367 252.217 527.361 268.757 527.361 288.606C527.361 308.454 511.367 324.994 490.96 324.994Z" fill="#002EA7"/>
<path d="M497.578 287.503C500.887 286.401 503.093 283.644 503.093 280.887C503.093 276.476 499.784 273.72 494.269 273.168V267.104H488.202V273.168H480.48V303.492H488.202V309.557H494.269V303.492C500.887 303.492 504.748 300.184 504.748 294.671C504.748 290.811 501.99 288.055 497.578 287.503ZM487.099 278.13H492.614C495.923 278.13 497.578 279.784 497.578 281.99C497.578 284.195 495.923 285.849 492.063 285.849H487.099V278.13ZM492.614 298.53H487.099V289.709H492.614C496.475 289.709 498.681 291.363 498.681 294.119C498.13 296.876 495.923 298.53 492.614 298.53Z" fill="#002EA7"/>
<g filter="url(#filter0_d)">
<g filter="url(#filter1_d)">
<rect x="164.229" y="245.406" width="379.527" height="87" fill="#00297A"/>
</g>
<path d="M199.764 270.406H201.532L197.424 261.306H195.76L191.665 270.406H193.407L194.304 268.3H198.854L199.764 270.406ZM194.876 266.974L196.579 262.996L198.295 266.974H194.876ZM205.655 270.497C207.007 270.497 208.086 269.912 208.619 268.872L207.371 268.144C206.955 268.807 206.331 269.106 205.642 269.106C204.446 269.106 203.536 268.287 203.536 266.935C203.536 265.596 204.446 264.764 205.642 264.764C206.331 264.764 206.955 265.063 207.371 265.726L208.619 264.998C208.086 263.945 207.007 263.386 205.655 263.386C203.458 263.386 201.898 264.855 201.898 266.935C201.898 269.015 203.458 270.497 205.655 270.497ZM213.107 270.497C214.459 270.497 215.538 269.912 216.071 268.872L214.823 268.144C214.407 268.807 213.783 269.106 213.094 269.106C211.898 269.106 210.988 268.287 210.988 266.935C210.988 265.596 211.898 264.764 213.094 264.764C213.783 264.764 214.407 265.063 214.823 265.726L216.071 264.998C215.538 263.945 214.459 263.386 213.107 263.386C210.91 263.386 209.35 264.855 209.35 266.935C209.35 269.015 210.91 270.497 213.107 270.497ZM219.023 264.478V263.464H217.476V270.406H219.101V267.039C219.101 265.622 219.881 264.894 221.116 264.894C221.233 264.894 221.35 264.907 221.493 264.933V263.386C220.336 263.386 219.491 263.75 219.023 264.478ZM228.031 263.464V266.974C228.031 268.365 227.264 269.067 226.133 269.067C225.106 269.067 224.508 268.469 224.508 267.208V263.464H222.883V267.429C222.883 269.522 224.092 270.497 225.873 270.497C226.77 270.497 227.589 270.159 228.109 269.522V270.406H229.656V263.464H228.031ZM238.31 266.974C238.31 264.803 236.828 263.386 234.8 263.386C232.733 263.386 231.212 264.868 231.212 266.935C231.212 269.002 232.72 270.497 235.047 270.497C236.243 270.497 237.218 270.107 237.842 269.366L236.971 268.365C236.477 268.872 235.866 269.119 235.086 269.119C233.877 269.119 233.032 268.469 232.837 267.455H238.284C238.297 267.299 238.31 267.104 238.31 266.974ZM234.8 264.686C235.866 264.686 236.633 265.375 236.763 266.376H232.824C232.98 265.362 233.747 264.686 234.8 264.686ZM245.045 260.76V264.322C244.499 263.685 243.706 263.386 242.809 263.386C240.794 263.386 239.299 264.777 239.299 266.935C239.299 269.093 240.794 270.497 242.809 270.497C243.758 270.497 244.564 270.172 245.11 269.509V270.406H246.67V260.76H245.045ZM243.004 269.106C241.834 269.106 240.937 268.261 240.937 266.935C240.937 265.609 241.834 264.764 243.004 264.764C244.174 264.764 245.071 265.609 245.071 266.935C245.071 268.261 244.174 269.106 243.004 269.106ZM252.544 270.406H254.234V261.306H252.544V270.406ZM260.479 263.386C259.465 263.386 258.62 263.724 258.087 264.361V263.464H256.54V270.406H258.165V266.896C258.165 265.505 258.945 264.803 260.102 264.803C261.142 264.803 261.753 265.401 261.753 266.636V270.406H263.378V266.428C263.378 264.335 262.143 263.386 260.479 263.386ZM269.157 268.872C268.91 269.067 268.585 269.158 268.247 269.158C267.623 269.158 267.285 268.794 267.285 268.118V264.816H269.144V263.516H267.285V261.93H265.66V263.516H264.516V264.816H265.66V268.157C265.66 269.691 266.531 270.497 268.052 270.497C268.637 270.497 269.222 270.341 269.612 270.029L269.157 268.872ZM277.246 266.974C277.246 264.803 275.764 263.386 273.736 263.386C271.669 263.386 270.148 264.868 270.148 266.935C270.148 269.002 271.656 270.497 273.983 270.497C275.179 270.497 276.154 270.107 276.778 269.366L275.907 268.365C275.413 268.872 274.802 269.119 274.022 269.119C272.813 269.119 271.968 268.469 271.773 267.455H277.22C277.233 267.299 277.246 267.104 277.246 266.974ZM273.736 264.686C274.802 264.686 275.569 265.375 275.699 266.376H271.76C271.916 265.362 272.683 264.686 273.736 264.686ZM280.354 264.478V263.464H278.807V270.406H280.432V267.039C280.432 265.622 281.212 264.894 282.447 264.894C282.564 264.894 282.681 264.907 282.824 264.933V263.386C281.667 263.386 280.822 263.75 280.354 264.478ZM290.665 266.974C290.665 264.803 289.183 263.386 287.155 263.386C285.088 263.386 283.567 264.868 283.567 266.935C283.567 269.002 285.075 270.497 287.402 270.497C288.598 270.497 289.573 270.107 290.197 269.366L289.326 268.365C288.832 268.872 288.221 269.119 287.441 269.119C286.232 269.119 285.387 268.469 285.192 267.455H290.639C290.652 267.299 290.665 267.104 290.665 266.974ZM287.155 264.686C288.221 264.686 288.988 265.375 289.118 266.376H285.179C285.335 265.362 286.102 264.686 287.155 264.686ZM294.371 270.497C296.321 270.497 297.517 269.652 297.517 268.352C297.517 265.635 293.227 266.883 293.227 265.479C293.227 265.024 293.695 264.699 294.683 264.699C295.346 264.699 296.009 264.829 296.672 265.219L297.296 263.984C296.672 263.607 295.619 263.386 294.696 263.386C292.824 263.386 291.641 264.244 291.641 265.557C291.641 268.326 295.931 267.078 295.931 268.404C295.931 268.885 295.502 269.171 294.475 269.171C293.604 269.171 292.668 268.885 292.057 268.482L291.433 269.717C292.057 270.159 293.214 270.497 294.371 270.497ZM302.635 268.872C302.388 269.067 302.063 269.158 301.725 269.158C301.101 269.158 300.763 268.794 300.763 268.118V264.816H302.622V263.516H300.763V261.93H299.138V263.516H297.994V264.816H299.138V268.157C299.138 269.691 300.009 270.497 301.53 270.497C302.115 270.497 302.7 270.341 303.09 270.029L302.635 268.872Z" fill="#00297A"/>
<path d="M206.528 298.862C206.528 294.97 203.14 293.99 200.032 293.234V287.578C201.516 287.746 203.084 288.222 204.568 289.09L205.716 286.262C204.204 285.282 202.104 284.666 200.032 284.554V281.446H197.736V284.61C193.368 285.03 191.296 287.522 191.296 290.378C191.296 294.27 194.628 295.278 197.736 296.034V301.634C195.608 301.438 193.508 300.626 192.136 299.506L190.876 302.334C192.332 303.594 194.992 304.49 197.736 304.658V307.766H200.032V304.63C204.428 304.182 206.528 301.718 206.528 298.862ZM194.908 290.21C194.908 288.978 195.748 287.97 197.736 287.662V292.646C196.112 292.17 194.908 291.554 194.908 290.21ZM200.032 301.578V296.622C201.712 297.098 202.944 297.742 202.944 299.114C202.944 300.318 202.076 301.27 200.032 301.578ZM207.456 284.806V287.858H211.6V304.406H215.24V284.806H207.456ZM218.12 284.806V287.858H222.264V304.406H225.904V284.806H218.12ZM247.265 296.874H243.793V292.926H240.377V296.874H233.965L243.065 284.806H239.173L229.513 297.434V299.954H240.265V304.406H243.793V299.954H247.265V296.874ZM251.527 304.602C252.787 304.602 253.823 303.622 253.823 302.278C253.823 300.878 252.787 299.954 251.527 299.954C250.267 299.954 249.231 300.878 249.231 302.278C249.231 303.622 250.267 304.602 251.527 304.602ZM262.311 292.394H260.435L260.855 287.858H269.283V284.806H257.775L256.767 295.474H261.499C265.559 295.474 266.763 296.65 266.763 298.526C266.763 300.374 265.223 301.522 262.619 301.522C260.407 301.522 258.279 300.766 256.851 299.59L255.311 302.418C257.103 303.846 259.903 304.686 262.675 304.686C267.939 304.686 270.431 301.83 270.431 298.386C270.431 294.914 268.107 292.394 262.311 292.394ZM279.139 284.526C275.135 284.526 271.971 286.99 271.971 290.882C271.971 294.55 274.855 296.902 278.719 296.902C280.903 296.902 282.779 296.23 283.955 294.858V294.886C283.955 299.338 281.631 301.634 277.935 301.634C276.563 301.634 275.275 301.382 274.211 300.682L272.867 303.426C274.183 304.266 276.059 304.686 278.019 304.686C283.703 304.686 287.623 300.99 287.623 294.27C287.623 287.97 284.487 284.526 279.139 284.526ZM279.419 294.046C277.039 294.046 275.499 292.758 275.499 290.714C275.499 288.67 277.067 287.382 279.335 287.382C281.939 287.382 283.395 288.838 283.395 290.686C283.395 292.618 281.771 294.046 279.419 294.046Z" fill="#00297A"/>
</g>
<path d="M197.275 278.406H394" stroke="#0032EB" stroke-width="11" stroke-miterlimit="10" stroke-linecap="round"/>
<path d="M197.275 302.197H323.451" stroke="#0032EB" stroke-width="11" stroke-miterlimit="10" stroke-linecap="round"/>
<path fill-rule="evenodd" clip-rule="evenodd" d="M490.955 287.134C496.689 287.134 501.333 282.496 501.333 276.77C501.333 271.044 496.689 266.406 490.955 266.406C485.221 266.406 480.576 271.044 480.576 276.77C480.576 282.496 485.221 287.134 490.955 287.134ZM467.604 281.953V276.771C467.604 275.346 466.436 274.18 465.009 274.18C463.582 274.18 462.415 275.346 462.415 276.771V281.953H457.225C455.798 281.953 454.631 283.119 454.631 284.544C454.631 285.969 455.798 287.135 457.225 287.135H462.415V292.317C462.415 293.742 463.582 294.908 465.009 294.908C466.436 294.908 467.604 293.742 467.604 292.317V287.135H472.793C474.22 287.135 475.387 285.969 475.387 284.544C475.387 283.119 474.22 281.953 472.793 281.953H467.604ZM470.199 302.678C470.199 295.786 484.028 292.314 490.955 292.314C497.883 292.314 511.712 295.786 511.712 302.678V305.269C511.712 306.694 510.544 307.86 509.117 307.86H472.793C471.366 307.86 470.199 306.694 470.199 305.269V302.678Z" fill="#F3F3F3"/>
<defs>
<filter id="filter0_d" x="124.229" y="221.406" width="459.527" height="167" filterUnits="userSpaceOnUse" color-interpolation-filters="sRGB">
<feFlood flood-opacity="0" result="BackgroundImageFix"/>
<feColorMatrix in="SourceAlpha" type="matrix" values="0 0 0 0 0 0 0 0 0 0 0 0 0 0 0 0 0 0 127 0"/>
<feOffset dy="16"/>
<feGaussianBlur stdDeviation="20"/>
<feColorMatrix type="matrix" values="0 0 0 0 0.00868401 0 0 0 0 0.142386 0 0 0 0 0.487784 0 0 0 0.25 0"/>
<feBlend mode="normal" in2="BackgroundImageFix" result="effect1_dropShadow"/>
<feBlend mode="normal" in="SourceGraphic" in2="effect1_dropShadow" result="shape"/>
</filter>
<filter id="filter1_d" x="124.229" y="221.406" width="459.527" height="167" filterUnits="userSpaceOnUse" color-interpolation-filters="sRGB">
<feFlood flood-opacity="0" result="BackgroundImageFix"/>
<feColorMatrix in="SourceAlpha" type="matrix" values="0 0 0 0 0 0 0 0 0 0 0 0 0 0 0 0 0 0 127 0"/>
<feOffset dy="16"/>
<feGaussianBlur stdDeviation="20"/>
<feColorMatrix type="matrix" values="0 0 0 0 0.393689 0 0 0 0 0.448744 0 0 0 0 0.5038 0 0 0 0.2 0"/>
<feBlend mode="normal" in2="BackgroundImageFix" result="effect1_dropShadow"/>
<feBlend mode="normal" in="SourceGraphic" in2="effect1_dropShadow" result="shape"/>
</filter>
<clipPath id="clip0">
<rect width="16.6929" height="14.3776" fill="white" transform="translate(662.137 86.0371)"/>
</clipPath>
</defs>
</svg>
