<svg width="591" height="435" viewBox="0 0 591 435" fill="none" xmlns="http://www.w3.org/2000/svg">
<g clip-path="url(#clip0)">
<path d="M0 100C0 90.06 8.06 82 18 82H212C221.94 82 230 90.06 230 100V332C230 341.94 221.94 350 212 350H18C8.06 350 0 341.94 0 332V100Z" fill="white"/>
<path d="M36.2801 233V231.9H32.2601V224.5H31.0801V233H36.2801ZM42.7101 225.58V224.49H35.8501V225.58H38.6901V233H39.8701V225.58H42.7101ZM47.0001 231.49L44.4301 224.49H43.1801L46.3801 233H47.5401L50.8201 224.49H49.5801L47.0001 231.49Z" fill="#E1E1E1"/>
<path d="M36.9701 160H38.2401L34.8601 151.49H33.5001L30.1201 160H31.3801L32.2801 157.62H36.0501L36.9701 160ZM34.1501 152.72L35.6301 156.54H32.7001L34.1501 152.72ZM41.6301 155.09C42.6101 155.09 43.0301 155.75 43.1801 156.31L44.2001 155.88C43.9601 155 43.1701 154.04 41.6301 154.04C39.9901 154.04 38.7301 155.3 38.7301 157.1C38.7301 158.85 39.9701 160.17 41.6501 160.17C43.1501 160.17 43.9801 159.2 44.2501 158.37L43.2501 157.94C43.1201 158.4 42.7201 159.13 41.6401 159.13C40.7001 159.13 39.8801 158.42 39.8801 157.1C39.8801 155.76 40.7201 155.09 41.6301 155.09ZM47.9401 155.09C48.9201 155.09 49.3401 155.75 49.4901 156.31L50.5101 155.88C50.2701 155 49.4801 154.04 47.9401 154.04C46.3001 154.04 45.0401 155.3 45.0401 157.1C45.0401 158.85 46.2801 160.17 47.9601 160.17C49.4601 160.17 50.2901 159.2 50.5601 158.37L49.5601 157.94C49.4301 158.4 49.0301 159.13 47.9501 159.13C47.0101 159.13 46.1901 158.42 46.1901 157.1C46.1901 155.76 47.0301 155.09 47.9401 155.09ZM54.2901 159.17C53.3301 159.17 52.4901 158.45 52.4901 157.11C52.4901 155.78 53.3301 155.06 54.2901 155.06C55.2501 155.06 56.0901 155.78 56.0901 157.11C56.0901 158.45 55.2501 159.17 54.2901 159.17ZM54.2901 154.05C52.5601 154.05 51.3401 155.36 51.3401 157.11C51.3401 158.87 52.5601 160.18 54.2901 160.18C56.0201 160.18 57.2401 158.87 57.2401 157.11C57.2401 155.36 56.0201 154.05 54.2901 154.05ZM62.4301 159.3C62.4301 159.54 62.4501 159.86 62.4801 160H63.5601C63.5401 159.8 63.5001 159.39 63.5001 158.93V154.23H62.3701V157.71C62.3701 158.59 61.9101 159.19 61.0001 159.19C60.0501 159.19 59.6901 158.49 59.6901 157.7V154.23H58.5601V157.87C58.5601 159.18 59.3801 160.19 60.7201 160.19C61.4001 160.18 62.1201 159.9 62.4301 159.3ZM66.5501 156.66C66.5501 155.78 67.0101 155.08 67.8901 155.08C68.9001 155.08 69.2301 155.73 69.2301 156.53V160H70.3601V156.34C70.3601 155.06 69.6801 154.06 68.3001 154.06C67.6301 154.06 66.9401 154.34 66.5201 155.06V154.23H65.4201V160H66.5501V156.66ZM73.6801 152.4H72.6501V153.34C72.6501 153.84 72.3901 154.23 71.7601 154.23H71.4501V155.25H72.5501V158.42C72.5501 159.46 73.1701 160.06 74.1601 160.06C74.5401 160.06 74.8301 159.99 74.9301 159.95V158.99C74.8301 159.01 74.6301 159.04 74.4901 159.04C73.9001 159.04 73.6901 158.78 73.6901 158.25V155.25H74.9401V154.23H73.6901V152.4H73.6801ZM79.5501 151.49V160H82.5301C84.0901 160 85.1601 159.03 85.1601 157.68C85.1601 156.73 84.6001 155.87 83.6201 155.63C84.3601 155.35 84.8901 154.71 84.8901 153.79C84.8901 152.45 83.9401 151.49 82.3201 151.49H79.5501ZM80.7201 155.21V152.52H82.1401C83.1101 152.52 83.7001 153.05 83.7001 153.85C83.7001 154.64 83.1401 155.21 82.1901 155.21H80.7201ZM80.7201 158.97V156.22H82.4001C83.4301 156.22 83.9501 156.8 83.9501 157.61C83.9501 158.44 83.3001 158.97 82.3501 158.97H80.7201ZM86.1701 158.45C86.1701 159.36 86.9301 160.18 88.1001 160.18C89.1301 160.18 89.7101 159.63 89.9601 159.22C89.9601 159.64 90.0001 159.86 90.0201 160H91.1201C91.1001 159.86 91.0501 159.56 91.0501 159.05V156.16C91.0501 155.03 90.3801 154.05 88.6501 154.05C87.4001 154.05 86.4101 154.82 86.2901 155.92L87.3701 156.17C87.4401 155.5 87.8901 155.01 88.6801 155.01C89.5601 155.01 89.9301 155.48 89.9301 156.04C89.9301 156.24 89.8301 156.42 89.4901 156.47L87.9301 156.7C86.9301 156.84 86.1701 157.42 86.1701 158.45ZM88.2601 159.23C87.6801 159.23 87.3201 158.82 87.3201 158.39C87.3201 157.87 87.6801 157.6 88.1601 157.53L89.9201 157.27V157.53C89.9301 158.79 89.1801 159.23 88.2601 159.23ZM93.9401 160V151.31H92.8101V160H93.9401ZM95.5001 158.45C95.5001 159.36 96.2601 160.18 97.4301 160.18C98.4601 160.18 99.0401 159.63 99.2901 159.22C99.2901 159.64 99.3301 159.86 99.3501 160H100.45C100.43 159.86 100.38 159.56 100.38 159.05V156.16C100.38 155.03 99.7101 154.05 97.9801 154.05C96.7301 154.05 95.7401 154.82 95.6201 155.92L96.7001 156.17C96.7701 155.5 97.2201 155.01 98.0101 155.01C98.8901 155.01 99.2601 155.48 99.2601 156.04C99.2601 156.24 99.1601 156.42 98.8201 156.47L97.2601 156.7C96.2501 156.84 95.5001 157.42 95.5001 158.45ZM97.5901 159.23C97.0101 159.23 96.6501 158.82 96.6501 158.39C96.6501 157.87 97.0101 157.6 97.4901 157.53L99.2501 157.27V157.53C99.2501 158.79 98.5101 159.23 97.5901 159.23ZM103.27 156.66C103.27 155.78 103.73 155.08 104.61 155.08C105.62 155.08 105.95 155.73 105.95 156.53V160H107.08V156.34C107.08 155.06 106.4 154.06 105.02 154.06C104.35 154.06 103.66 154.34 103.24 155.06V154.23H102.14V160H103.27V156.66ZM111.3 155.09C112.28 155.09 112.7 155.75 112.85 156.31L113.87 155.88C113.63 155 112.84 154.04 111.3 154.04C109.66 154.04 108.4 155.3 108.4 157.1C108.4 158.85 109.64 160.17 111.32 160.17C112.82 160.17 113.65 159.2 113.92 158.37L112.92 157.94C112.79 158.4 112.39 159.13 111.31 159.13C110.37 159.13 109.55 158.42 109.55 157.1C109.55 155.76 110.39 155.09 111.3 155.09ZM115.92 156.52C115.97 155.78 116.54 155.04 117.49 155.04C118.51 155.04 119.05 155.69 119.07 156.52H115.92ZM119.24 158.02C119.02 158.67 118.56 159.18 117.62 159.18C116.65 159.18 115.9 158.46 115.88 157.43H120.22C120.23 157.36 120.24 157.21 120.24 157.07C120.24 155.27 119.24 154.05 117.47 154.05C116.02 154.05 114.71 155.29 114.71 157.1C114.71 159.06 116.07 160.18 117.61 160.18C118.95 160.18 119.88 159.38 120.2 158.36L119.24 158.02Z" fill="#E1E1E1"/>
<path d="M154.57 226.93C154.57 226.34 154.71 225.84 155 225.44C155.28 225.03 155.66 224.73 156.14 224.52C156.62 224.31 157.15 224.21 157.74 224.21C158.37 224.21 158.92 224.3 159.41 224.47C159.9 224.64 160.28 224.89 160.56 225.23C160.84 225.57 160.98 225.99 160.98 226.5C160.98 226.93 160.85 227.31 160.59 227.65C160.33 227.99 159.92 228.25 159.36 228.44C159.71 228.54 160.02 228.68 160.3 228.87C160.58 229.06 160.79 229.29 160.95 229.58C161.11 229.86 161.2 230.2 161.2 230.58C161.2 230.99 161.11 231.36 160.93 231.68C160.75 232 160.51 232.27 160.19 232.49C159.87 232.71 159.5 232.87 159.08 232.98C158.66 233.09 158.2 233.14 157.71 233.14C157.06 233.14 156.5 233.02 156.02 232.8C155.54 232.58 155.18 232.27 154.92 231.86C154.66 231.45 154.52 230.97 154.51 230.41H155.93C156.01 230.93 156.22 231.31 156.54 231.56C156.87 231.81 157.27 231.93 157.73 231.93C158.12 231.93 158.45 231.87 158.74 231.76C159.02 231.64 159.24 231.48 159.39 231.27C159.55 231.06 159.62 230.82 159.62 230.54C159.62 230.25 159.54 230 159.37 229.79C159.21 229.58 158.98 229.42 158.69 229.31C158.4 229.2 158.08 229.14 157.72 229.13L156.92 229.11V227.92L157.66 227.89C158 227.88 158.31 227.81 158.57 227.69C158.83 227.57 159.04 227.41 159.19 227.22C159.34 227.03 159.41 226.8 159.41 226.56C159.41 226.34 159.34 226.13 159.2 225.95C159.06 225.77 158.87 225.63 158.62 225.53C158.37 225.43 158.07 225.37 157.73 225.37C157.44 225.37 157.16 225.42 156.91 225.53C156.65 225.63 156.44 225.8 156.27 226.03C156.11 226.26 156.02 226.56 156 226.93H154.57ZM162.31 226.93C162.31 226.34 162.45 225.84 162.74 225.44C163.02 225.03 163.4 224.73 163.88 224.52C164.36 224.31 164.89 224.21 165.48 224.21C166.11 224.21 166.66 224.3 167.15 224.47C167.64 224.64 168.02 224.89 168.3 225.23C168.58 225.57 168.72 225.99 168.72 226.5C168.72 226.93 168.59 227.31 168.33 227.65C168.07 227.99 167.66 228.25 167.1 228.44C167.45 228.54 167.76 228.68 168.04 228.87C168.32 229.06 168.53 229.29 168.69 229.58C168.85 229.86 168.94 230.2 168.94 230.58C168.94 230.99 168.85 231.36 168.67 231.68C168.49 232 168.25 232.27 167.93 232.49C167.61 232.71 167.24 232.87 166.82 232.98C166.4 233.09 165.94 233.14 165.45 233.14C164.8 233.14 164.24 233.02 163.76 232.8C163.28 232.58 162.92 232.27 162.66 231.86C162.4 231.45 162.26 230.97 162.25 230.41H163.67C163.75 230.93 163.96 231.31 164.28 231.56C164.61 231.81 165.01 231.93 165.47 231.93C165.86 231.93 166.19 231.87 166.48 231.76C166.76 231.64 166.98 231.48 167.13 231.27C167.29 231.06 167.36 230.82 167.36 230.54C167.36 230.25 167.28 230 167.11 229.79C166.95 229.58 166.72 229.42 166.43 229.31C166.14 229.2 165.82 229.14 165.46 229.13L164.66 229.11V227.92L165.4 227.89C165.74 227.88 166.05 227.81 166.31 227.69C166.57 227.57 166.78 227.41 166.93 227.22C167.08 227.03 167.15 226.8 167.15 226.56C167.15 226.34 167.08 226.13 166.94 225.95C166.8 225.77 166.61 225.63 166.36 225.53C166.11 225.43 165.81 225.37 165.47 225.37C165.18 225.37 164.9 225.42 164.65 225.53C164.39 225.63 164.18 225.8 164.01 226.03C163.85 226.26 163.76 226.56 163.74 226.93H162.31ZM170.09 233V231.32H171.74V233H170.09ZM176.24 224.2C177.23 224.2 178.02 224.58 178.59 225.35C179.17 226.11 179.46 227.22 179.46 228.68C179.46 230.13 179.17 231.24 178.6 232C178.03 232.76 177.24 233.13 176.24 233.13C175.24 233.13 174.45 232.75 173.87 232C173.3 231.24 173.01 230.14 173.01 228.69C173.01 227.71 173.14 226.89 173.41 226.23C173.67 225.56 174.05 225.06 174.53 224.72C175.01 224.38 175.58 224.2 176.24 224.2ZM176.24 231.91C176.8 231.91 177.22 231.66 177.5 231.16C177.78 230.66 177.91 229.83 177.91 228.68C177.91 227.5 177.77 226.66 177.49 226.15C177.21 225.64 176.79 225.38 176.23 225.38C175.67 225.38 175.25 225.64 174.96 226.15C174.68 226.67 174.53 227.51 174.53 228.68C174.53 229.83 174.67 230.65 174.96 231.16C175.25 231.66 175.68 231.91 176.24 231.91ZM181.44 224.32H186.83L186.78 225.54H182.63L182.43 227.95C182.74 227.73 183.05 227.58 183.36 227.48C183.67 227.38 184.02 227.34 184.39 227.34C184.94 227.34 185.44 227.45 185.9 227.66C186.35 227.88 186.71 228.19 186.98 228.61C187.25 229.03 187.38 229.54 187.38 230.15C187.38 230.76 187.24 231.28 186.97 231.73C186.7 232.17 186.32 232.52 185.83 232.76C185.34 233 184.76 233.12 184.1 233.12C183.55 233.12 183.03 233.03 182.56 232.85C182.09 232.67 181.68 232.41 181.34 232.09C181 231.77 180.75 231.4 180.58 230.99L181.76 230.37C181.91 230.67 182.08 230.93 182.29 231.17C182.5 231.41 182.74 231.59 183.02 231.73C183.3 231.86 183.62 231.93 183.98 231.93C184.54 231.93 185 231.77 185.34 231.46C185.68 231.14 185.86 230.72 185.86 230.2C185.86 229.88 185.78 229.59 185.62 229.34C185.46 229.09 185.25 228.89 184.98 228.75C184.71 228.61 184.41 228.53 184.06 228.53C183.86 228.53 183.66 228.55 183.48 228.58C183.3 228.62 183.13 228.68 182.95 228.78C182.77 228.88 182.58 229.02 182.37 229.22C182.33 229.24 182.3 229.25 182.28 229.25C182.26 229.25 182.23 229.23 182.19 229.21L181.07 228.75L181.44 224.32ZM190.66 224.19C191.06 224.19 191.42 224.3 191.74 224.51C192.06 224.72 192.31 225.01 192.5 225.39C192.68 225.76 192.78 226.19 192.78 226.67C192.78 227.15 192.69 227.57 192.5 227.94C192.32 228.31 192.07 228.6 191.75 228.81C191.43 229.02 191.07 229.12 190.66 229.12C190.25 229.12 189.89 229.02 189.56 228.81C189.24 228.6 188.99 228.31 188.8 227.94C188.62 227.57 188.52 227.15 188.52 226.67C188.52 226.19 188.61 225.76 188.8 225.39C188.99 225.02 189.24 224.73 189.56 224.51C189.89 224.3 190.25 224.19 190.66 224.19ZM190.64 228.36C190.98 228.36 191.24 228.21 191.41 227.91C191.58 227.61 191.67 227.2 191.67 226.68C191.67 226.15 191.58 225.73 191.41 225.43C191.24 225.12 190.98 224.96 190.64 224.96C190.42 224.96 190.23 225.03 190.07 225.18C189.92 225.32 189.8 225.52 189.72 225.78C189.64 226.04 189.6 226.34 189.6 226.69C189.6 227.2 189.69 227.61 189.86 227.91C190.05 228.2 190.3 228.36 190.64 228.36ZM196.23 228.17C196.63 228.17 197 228.28 197.32 228.49C197.64 228.71 197.89 229 198.08 229.38C198.26 229.75 198.36 230.18 198.36 230.65C198.36 231.13 198.27 231.56 198.08 231.93C197.9 232.3 197.65 232.59 197.33 232.8C197.01 233.01 196.65 233.11 196.24 233.11C195.83 233.11 195.47 233.01 195.14 232.8C194.82 232.59 194.56 232.3 194.38 231.93C194.2 231.56 194.1 231.13 194.1 230.65C194.1 230.17 194.19 229.75 194.38 229.38C194.57 229 194.82 228.71 195.15 228.49C195.48 228.27 195.83 228.17 196.23 228.17ZM196.22 232.34C196.44 232.34 196.63 232.27 196.78 232.13C196.94 231.99 197.05 231.8 197.13 231.55C197.21 231.3 197.25 231 197.25 230.67C197.25 230.33 197.21 230.03 197.13 229.77C197.05 229.51 196.93 229.31 196.78 229.16C196.63 229.02 196.44 228.94 196.22 228.94C196 228.94 195.81 229.01 195.66 229.16C195.51 229.3 195.39 229.51 195.31 229.77C195.23 230.03 195.19 230.32 195.19 230.66C195.19 231 195.23 231.29 195.31 231.54C195.39 231.79 195.51 231.98 195.66 232.12C195.81 232.27 195.99 232.34 196.22 232.34ZM196.73 224.23L190.9 233.05L189.99 233.04L195.85 224.23H196.73Z" fill="#E1E1E1"/>
<path d="M36.34 204.85V203.93H30.78V204.85H36.34ZM36.34 207.19V206.24H30.78V207.19H36.34ZM41.88 205.11C41.88 203.92 42.1 203.08 42.56 202.59C42.86 202.28 43.24 202.09 43.8 202.09C44.35 202.09 44.74 202.28 45.04 202.59C45.51 203.08 45.72 203.92 45.72 205.11C45.72 206.3 45.5 207.14 45.04 207.63C44.74 207.94 44.36 208.13 43.8 208.13C43.25 208.13 42.86 207.94 42.56 207.63C42.09 207.14 41.88 206.3 41.88 205.11ZM40.71 205.11C40.71 206.18 40.89 207.16 41.41 207.93C41.91 208.69 42.69 209.18 43.8 209.18C44.91 209.18 45.68 208.69 46.19 207.93C46.71 207.16 46.89 206.18 46.89 205.11C46.89 204.04 46.71 203.06 46.19 202.29C45.69 201.53 44.91 201.04 43.8 201.04C42.69 201.04 41.92 201.53 41.41 202.29C40.89 203.06 40.71 204.04 40.71 205.11ZM47.84 208.23C47.84 208.7 48.2 209.06 48.67 209.06C49.14 209.06 49.51 208.7 49.51 208.23C49.51 207.76 49.14 207.39 48.67 207.39C48.2 207.39 47.84 207.76 47.84 208.23ZM50.78 206.89C50.89 208.11 52 209.19 53.66 209.19C55.39 209.19 56.52 208 56.52 206.54C56.52 204.93 55.4 203.96 53.88 203.96C53.27 203.96 52.64 204.15 52.3 204.54L52.88 202.31H56.2V201.23H52.1L51.09 205.09C51.49 205.23 51.83 205.39 52.24 205.55C52.58 205.2 53.1 204.99 53.66 204.99C54.56 204.99 55.34 205.53 55.34 206.6C55.34 207.56 54.6 208.17 53.67 208.17C52.7 208.17 51.99 207.52 51.92 206.56L50.78 206.89ZM57.35 207.25H61.17V209H62.31V207.25H63.64V206.16H62.31V201.23H60.69L57.35 205.9V207.25ZM61.17 206.16H58.43L61.17 202.36V206.16ZM69.5 201.22H63.82V202.3H68.2C68.2 202.3 65.34 204.47 65 209H66.21C66.58 204.88 68.78 202.93 69.5 202.35V201.22ZM72.96 209V201.22H71.93C71.75 202.06 71.01 202.66 69.93 202.68V203.51H71.81V209H72.96ZM74.27 206.89C74.38 208.11 75.49 209.19 77.15 209.19C78.88 209.19 80.01 208 80.01 206.54C80.01 204.93 78.89 203.96 77.37 203.96C76.76 203.96 76.13 204.15 75.79 204.54L76.37 202.31H79.69V201.23H75.59L74.58 205.09C74.98 205.23 75.32 205.39 75.73 205.55C76.07 205.2 76.59 204.99 77.15 204.99C78.05 204.99 78.83 205.53 78.83 206.6C78.83 207.56 78.09 208.17 77.16 208.17C76.19 208.17 75.48 207.52 75.41 206.56L74.27 206.89ZM86.22 201.22H80.54V202.3H84.92C84.92 202.3 82.06 204.47 81.72 209H82.93C83.3 204.88 85.5 202.93 86.22 202.35V201.22ZM87.74 205.11C87.74 203.92 87.96 203.08 88.42 202.59C88.72 202.28 89.1 202.09 89.66 202.09C90.21 202.09 90.6 202.28 90.9 202.59C91.37 203.08 91.58 203.92 91.58 205.11C91.58 206.3 91.36 207.14 90.9 207.63C90.6 207.94 90.22 208.13 89.66 208.13C89.11 208.13 88.72 207.94 88.42 207.63C87.96 207.14 87.74 206.3 87.74 205.11ZM86.58 205.11C86.58 206.18 86.76 207.16 87.28 207.93C87.78 208.69 88.56 209.18 89.67 209.18C90.77 209.18 91.55 208.69 92.06 207.93C92.58 207.16 92.76 206.18 92.76 205.11C92.76 204.04 92.58 203.06 92.06 202.29C91.56 201.53 90.78 201.04 89.67 201.04C88.57 201.04 87.79 201.53 87.28 202.29C86.76 203.06 86.58 204.04 86.58 205.11Z" fill="#E1E1E1"/>
<path d="M39.5701 191.04V188.21C42.5901 187.66 44.3001 185.43 44.3001 183.04C44.3001 180.7 42.9201 178.67 39.4401 177.89L37.1801 177.4C36.1701 177.17 35.6501 176.62 35.6501 175.92C35.6501 175.09 36.3801 174.23 37.8301 174.23C39.8801 174.23 40.3301 175.58 40.4801 176.39L44.0901 175.43C43.7301 173.66 42.4301 171.61 39.5701 170.98V168.09H36.5801V170.9C33.8501 171.37 31.6701 173.37 31.6701 176.28C31.6701 178.75 33.4601 180.52 36.3801 181.22L38.6901 181.77C39.7301 182 40.3001 182.5 40.3001 183.25C40.3001 184.26 39.3601 184.89 38.0601 184.89C35.8201 184.89 34.7801 183.54 34.6501 182.03L31.0601 182.84C31.2401 184.97 32.9101 187.68 36.5701 188.27V191.05H39.5701V191.04ZM50.4001 177.89C50.3001 177.55 50.2401 177.19 50.2401 176.85C50.2401 175.45 51.0201 174.35 52.6101 174.35C54.1201 174.35 54.8701 175.29 54.8701 176.35C54.8701 177.47 54.3501 178.17 53.0201 178.95L50.2601 180.56C47.1701 182.35 46.2801 184.9 46.2801 188H59.1001V184.57H51.3001C51.5301 184.08 51.9501 183.74 52.4401 183.43L55.6401 181.53C57.8001 180.26 58.9701 178.46 58.9701 176.28C58.9701 173.26 56.5801 170.74 52.7001 170.74C48.6401 170.74 46.3801 173.44 46.3801 176.46C46.3801 176.98 46.4601 177.66 46.5401 177.86L50.4001 177.89ZM60.4801 183.19C60.6901 185.84 63.2601 188.42 67.0101 188.42C71.2201 188.42 73.6101 185.61 73.6101 182.47C73.6101 178.83 71.2401 176.83 67.7901 176.83C66.8301 176.83 65.5801 177.17 64.9301 177.74L65.6101 174.57H72.5801V171.14H62.7801L60.8801 179.9C60.9601 179.95 64.4701 181.07 64.5501 181.1C64.9701 180.58 65.7701 180.01 66.9201 180.01C68.2701 180.01 69.5501 180.82 69.5501 182.51C69.5501 184.04 68.4101 184.95 67.0301 184.95C65.3701 184.95 64.3801 183.73 64.3001 182.43L60.4801 183.19ZM75.5101 185.71C75.5101 187.01 76.4201 188.05 77.8501 188.05C78.1601 188.05 78.4501 187.97 78.5801 187.87C78.5301 189.43 77.1001 190.47 75.9801 190.68V192.53C78.0601 192.3 80.9201 190.58 80.9201 186.55C80.9201 184.83 79.9301 183.3 78.1101 183.3C76.6301 183.29 75.5101 184.33 75.5101 185.71ZM86.9401 179.58C86.9401 178.23 87.1001 176.9 87.5601 175.91C88.0301 174.97 88.7801 174.35 90.0301 174.35C91.3001 174.35 92.0301 174.97 92.5001 175.91C92.9901 176.9 93.1501 178.22 93.1501 179.58C93.1501 180.93 92.9901 182.26 92.5001 183.25C92.0301 184.19 91.3001 184.81 90.0301 184.81C88.7801 184.81 88.0301 184.19 87.5601 183.25C87.1001 182.25 86.9401 180.93 86.9401 179.58ZM82.8301 179.58C82.8301 181.66 83.1401 183.77 84.3101 185.53C85.4301 187.19 87.3001 188.42 90.0301 188.42C92.7901 188.42 94.6601 187.2 95.7801 185.53C96.9501 183.76 97.2601 181.66 97.2601 179.58C97.2601 177.5 96.9501 175.39 95.7801 173.63C94.6601 171.94 92.7901 170.74 90.0301 170.74C87.3001 170.74 85.4301 171.94 84.3101 173.63C83.1501 175.39 82.8301 177.5 82.8301 179.58ZM103.24 179.58C103.24 178.23 103.4 176.9 103.86 175.91C104.33 174.97 105.08 174.35 106.33 174.35C107.6 174.35 108.33 174.97 108.8 175.91C109.29 176.9 109.45 178.22 109.45 179.58C109.45 180.93 109.29 182.26 108.8 183.25C108.33 184.19 107.6 184.81 106.33 184.81C105.08 184.81 104.33 184.19 103.86 183.25C103.4 182.25 103.24 180.93 103.24 179.58ZM99.1401 179.58C99.1401 181.66 99.4501 183.77 100.62 185.53C101.74 187.19 103.61 188.42 106.34 188.42C109.1 188.42 110.97 187.2 112.09 185.53C113.26 183.76 113.57 181.66 113.57 179.58C113.57 177.5 113.26 175.39 112.09 173.63C110.97 171.94 109.1 170.74 106.34 170.74C103.61 170.74 101.74 171.94 100.62 173.63C99.4501 175.39 99.1401 177.5 99.1401 179.58ZM127.73 171.13H114.63V174.56H122.9C122.9 174.56 117.57 179.27 116.87 188H121.13C121.86 179.68 126.56 175.42 127.73 174.4V171.13ZM125.89 185.56C125.89 186.99 127.09 188.24 128.54 188.24C130 188.24 131.22 186.99 131.22 185.56C131.22 184.1 130 182.91 128.54 182.91C127.08 182.9 125.89 184.1 125.89 185.56ZM133.68 187.51C134.56 188.03 136.1 188.39 137.61 188.39C143.41 188.39 146.61 184.83 146.61 178.85C146.61 173.47 143.62 170.74 139.77 170.74C135.82 170.74 133.17 173.26 133.17 176.69C133.17 180.07 135.74 182.36 138.99 182.36C140.5 182.36 141.95 181.76 142.66 180.72C142.4 183.71 140.11 184.88 137.54 184.88C136.34 184.88 135.12 184.49 134.58 184.2L133.68 187.51ZM142.1 176.56C142.1 177.94 141.01 178.95 139.58 178.95C138.15 178.95 137.06 177.96 137.06 176.56C137.06 175.16 138.15 174.17 139.58 174.17C141.01 174.17 142.1 175.16 142.1 176.56ZM154.87 177.91C153.41 177.88 152.71 176.95 152.71 175.93C152.71 175.05 153.46 174.11 154.87 174.11C156.27 174.11 157.03 175.05 157.03 175.93C157.03 176.95 156.35 177.89 154.87 177.91ZM154.87 185.06C153.23 185.06 152.37 183.97 152.37 182.95C152.37 181.91 153.15 180.79 154.87 180.79C156.61 180.79 157.39 181.91 157.39 182.95C157.39 183.97 156.53 185.06 154.87 185.06ZM154.87 188.39C158.72 188.39 161.4 186.39 161.4 183.42C161.4 181.68 160.28 180.01 158.51 179.31C160.25 178.69 161.08 176.94 161.08 175.62C161.08 172.79 158.53 170.73 154.87 170.73C151.23 170.73 148.68 172.78 148.68 175.62C148.68 176.95 149.49 178.69 151.23 179.31C149.46 180.01 148.37 181.68 148.37 183.42C148.37 186.39 151.05 188.39 154.87 188.39Z" fill="#E1E1E1"/>
<path d="M33.5 116H120.5C122.99 116 125 118.01 125 120.5C125 122.99 122.99 125 120.5 125H33.5C31.01 125 29 122.99 29 120.5C29 118.01 31.01 116 33.5 116Z" fill="#F3F3F3"/>
<path d="M385.93 407.99C363.54 408.06 342.06 399.09 326.41 383.17L206.75 263.86C190.76 248 181.86 226.31 182 203.78C182 181.46 190.9 160.11 206.82 144.47L326.14 24.81C359.1 -8.22004 412.63 -8.29004 445.73 24.67C445.8 24.74 445.8 24.74 445.87 24.81L565.18 144.12C581.17 159.97 590.07 181.6 590 204.12C590 226.44 581.1 247.78 565.18 263.43L445.8 383.24C429.94 399.16 408.39 408.06 385.93 407.99ZM385.93 102.06C374.74 101.99 363.96 106.44 356.1 114.37L296.3 174.16C279.82 190.64 279.82 217.41 296.3 233.89L356.03 293.62C372.58 310.03 399.28 310.03 415.76 293.62L475.49 233.89C491.9 217.34 491.9 190.64 475.49 174.16L415.76 114.37C407.9 106.44 397.13 101.99 385.93 102.06Z" fill="#0032EB"/>
<path d="M33.5 102H89.5C91.99 102 94 104.01 94 106.5C94 108.99 91.99 111 89.5 111H33.5C31.01 111 29 108.99 29 106.5C29 104.01 31.01 102 33.5 102Z" fill="#F3F3F3"/>
<path d="M0 286.5H230" stroke="#F3F3F3"/>
<path d="M32.5 303H148.5C150.99 303 153 305.01 153 307.5C153 309.99 150.99 312 148.5 312H32.5C30.01 312 28 309.99 28 307.5C28 305.01 30.01 303 32.5 303Z" fill="#F3F3F3"/>
<path d="M32.5 261H148.5C150.99 261 153 263.01 153 265.5C153 267.99 150.99 270 148.5 270H32.5C30.01 270 28 267.99 28 265.5C28 263.01 30.01 261 32.5 261Z" fill="#F3F3F3"/>
<path d="M32.5 318H148.5C150.99 318 153 320.01 153 322.5C153 324.99 150.99 327 148.5 327H32.5C30.01 327 28 324.99 28 322.5C28 320.01 30.01 318 32.5 318Z" fill="#F3F3F3"/>
<path d="M128 37C128 27.06 136.06 19 146 19H370C379.94 19 388 27.06 388 37V361C388 370.94 379.94 379 370 379H146C136.06 379 128 370.94 128 361V37Z" fill="#0032EB"/>
<path d="M128 37C128 27.06 136.06 19 146 19H370C379.94 19 388 27.06 388 37V361C388 370.94 379.94 379 370 379H146C136.06 379 128 370.94 128 361V37Z" fill="url(#paint0_linear)"/>
<path d="M128 310.5H388" stroke="#0028BC"/>
<path d="M128 66.5H388" stroke="#0028BC"/>
<path d="M163.5 43H291.5C293.99 43 296 45.01 296 47.5C296 49.99 293.99 52 291.5 52H163.5C161.01 52 159 49.99 159 47.5C159 45.01 161.01 43 163.5 43Z" fill="#012B97"/>
<path d="M163.5 343H250.5C252.99 343 255 345.01 255 347.5C255 349.99 252.99 352 250.5 352H163.5C161.01 352 159 349.99 159 347.5C159 345.01 161.01 343 163.5 343Z" fill="#012B97"/>
<path d="M163.5 329H219.5C221.99 329 224 331.01 224 333.5C224 335.99 221.99 338 219.5 338H163.5C161.01 338 159 335.99 159 333.5C159 331.01 161.01 329 163.5 329Z" fill="#012B97"/>
<path d="M161.26 95.9602V89.5402H163.02C164.59 89.5402 165.89 90.6202 165.89 92.7702C165.89 94.9102 164.57 95.9602 163 95.9602H161.26ZM163.03 97.0002C165.19 97.0002 167.1 95.5502 167.1 92.7602C167.1 89.9602 165.22 88.4902 163.06 88.4902H160.08V97.0002H163.03ZM169.33 93.5202C169.38 92.7802 169.95 92.0402 170.9 92.0402C171.92 92.0402 172.46 92.6902 172.48 93.5202H169.33ZM172.65 95.0202C172.43 95.6702 171.97 96.1802 171.03 96.1802C170.06 96.1802 169.31 95.4602 169.29 94.4302H173.63C173.64 94.3602 173.65 94.2102 173.65 94.0702C173.65 92.2702 172.65 91.0502 170.88 91.0502C169.43 91.0502 168.12 92.2902 168.12 94.1002C168.12 96.0602 169.48 97.1802 171.02 97.1802C172.36 97.1802 173.29 96.3802 173.61 95.3602L172.65 95.0202ZM176.22 99.2802V96.2202C176.53 96.7402 177.2 97.1602 178.09 97.1602C179.78 97.1602 180.78 95.8302 180.78 94.1102C180.78 92.4302 179.86 91.1002 178.13 91.1002C177.19 91.1002 176.51 91.5602 176.2 92.1302V91.2302H175.11V99.2802H176.22ZM179.62 94.1102C179.62 95.3002 178.96 96.1502 177.92 96.1502C176.89 96.1502 176.2 95.3002 176.2 94.1102C176.2 92.9602 176.88 92.0902 177.92 92.0902C178.98 92.0902 179.62 92.9602 179.62 94.1102ZM184.69 96.1702C183.73 96.1702 182.89 95.4502 182.89 94.1102C182.89 92.7802 183.73 92.0602 184.69 92.0602C185.65 92.0602 186.49 92.7802 186.49 94.1102C186.49 95.4502 185.65 96.1702 184.69 96.1702ZM184.69 91.0502C182.96 91.0502 181.74 92.3602 181.74 94.1102C181.74 95.8702 182.96 97.1802 184.69 97.1802C186.42 97.1802 187.64 95.8702 187.64 94.1102C187.64 92.3602 186.41 91.0502 184.69 91.0502ZM188.54 95.5002C188.64 96.1602 189.31 97.1802 190.89 97.1802C192.32 97.1802 193 96.2102 193 95.3902C193 94.5402 192.45 93.9002 191.4 93.6702L190.46 93.4702C190.02 93.3702 189.8 93.1202 189.8 92.7702C189.8 92.3702 190.18 92.0002 190.76 92.0002C191.67 92.0002 191.91 92.6602 191.96 92.9602L192.96 92.5902C192.84 92.0702 192.35 91.0402 190.76 91.0402C189.63 91.0402 188.71 91.8802 188.71 92.8602C188.71 93.6802 189.25 94.2902 190.15 94.4802L191.13 94.7002C191.61 94.8102 191.87 95.0802 191.87 95.4402C191.87 95.8502 191.52 96.2102 190.89 96.2102C190.07 96.2102 189.62 95.7302 189.55 95.1302L188.54 95.5002ZM195.62 97.0002V91.2302H194.5V97.0002H195.62ZM194.26 89.0402C194.26 89.4802 194.62 89.8402 195.06 89.8402C195.52 89.8402 195.88 89.4802 195.88 89.0402C195.88 88.5802 195.52 88.2202 195.06 88.2202C194.62 88.2302 194.26 88.5902 194.26 89.0402ZM199.05 89.4002H198.02V90.3402C198.02 90.8402 197.76 91.2302 197.13 91.2302H196.82V92.2502H197.92V95.4202C197.92 96.4602 198.54 97.0602 199.53 97.0602C199.91 97.0602 200.2 96.9902 200.3 96.9502V95.9902C200.2 96.0102 200 96.0402 199.86 96.0402C199.27 96.0402 199.06 95.7802 199.06 95.2502V92.2502H200.31V91.2302H199.06V89.4002H199.05ZM204.93 88.4902V97.0002H207.91C209.47 97.0002 210.54 96.0302 210.54 94.6802C210.54 93.7302 209.98 92.8702 209 92.6302C209.74 92.3502 210.27 91.7102 210.27 90.7902C210.27 89.4502 209.32 88.4902 207.7 88.4902H204.93ZM206.1 92.2102V89.5202H207.52C208.49 89.5202 209.08 90.0502 209.08 90.8502C209.08 91.6402 208.52 92.2102 207.57 92.2102H206.1ZM206.1 95.9702V93.2202H207.78C208.81 93.2202 209.33 93.8002 209.33 94.6102C209.33 95.4402 208.68 95.9702 207.73 95.9702H206.1ZM213.14 97.0002V91.2302H212.02V97.0002H213.14ZM211.77 89.0402C211.77 89.4802 212.13 89.8402 212.57 89.8402C213.03 89.8402 213.39 89.4802 213.39 89.0402C213.39 88.5802 213.03 88.2202 212.57 88.2202C212.13 88.2302 211.77 88.5902 211.77 89.0402ZM216.57 89.4002H215.54V90.3402C215.54 90.8402 215.28 91.2302 214.65 91.2302H214.34V92.2502H215.44V95.4202C215.44 96.4602 216.06 97.0602 217.05 97.0602C217.43 97.0602 217.72 96.9902 217.82 96.9502V95.9902C217.72 96.0102 217.52 96.0402 217.38 96.0402C216.79 96.0402 216.58 95.7802 216.58 95.2502V92.2502H217.83V91.2302H216.58V89.4002H216.57ZM221.69 92.0902C222.67 92.0902 223.09 92.7502 223.24 93.3102L224.26 92.8802C224.02 92.0002 223.23 91.0402 221.69 91.0402C220.05 91.0402 218.79 92.3002 218.79 94.1002C218.79 95.8502 220.03 97.1702 221.71 97.1702C223.21 97.1702 224.04 96.2002 224.31 95.3702L223.31 94.9402C223.18 95.4002 222.78 96.1302 221.7 96.1302C220.76 96.1302 219.94 95.4202 219.94 94.1002C219.94 92.7602 220.78 92.0902 221.69 92.0902ZM228.04 96.1702C227.08 96.1702 226.24 95.4502 226.24 94.1102C226.24 92.7802 227.08 92.0602 228.04 92.0602C229 92.0602 229.84 92.7802 229.84 94.1102C229.85 95.4502 229.01 96.1702 228.04 96.1702ZM228.04 91.0502C226.31 91.0502 225.09 92.3602 225.09 94.1102C225.09 95.8702 226.31 97.1802 228.04 97.1802C229.77 97.1802 230.99 95.8702 230.99 94.1102C231 92.3602 229.77 91.0502 228.04 91.0502ZM233.56 97.0002V91.2302H232.44V97.0002H233.56ZM232.19 89.0402C232.19 89.4802 232.55 89.8402 232.99 89.8402C233.45 89.8402 233.81 89.4802 233.81 89.0402C233.81 88.5802 233.45 88.2202 232.99 88.2202C232.55 88.2302 232.19 88.5902 232.19 89.0402ZM236.6 93.6602C236.6 92.7802 237.06 92.0802 237.94 92.0802C238.95 92.0802 239.28 92.7302 239.28 93.5302V97.0002H240.41V93.3402C240.41 92.0602 239.73 91.0602 238.35 91.0602C237.68 91.0602 236.99 91.3402 236.57 92.0602V91.2302H235.47V97.0002H236.6V93.6602Z" fill="white"/>
<path d="M168.54 119V116H162.7V113.28H167.98V110.5H162.7V107.8H168.52V104.82H159.54V119H168.54ZM170.36 116.26C170.36 117.84 171.62 119.28 173.8 119.28C175.12 119.28 176.08 118.72 176.6 117.88C176.6 118.56 176.68 118.92 176.7 119H179.44C179.42 118.9 179.32 118.24 179.32 117.46V112.6C179.32 110.56 178.14 108.76 174.92 108.76C172 108.76 170.68 110.64 170.56 112.06L173.2 112.6C173.26 111.86 173.84 111.14 174.9 111.14C175.86 111.14 176.36 111.64 176.36 112.22C176.36 112.56 176.18 112.82 175.64 112.9L173.3 113.26C171.66 113.5 170.36 114.5 170.36 116.26ZM174.54 117.08C173.7 117.08 173.36 116.58 173.36 116.06C173.36 115.36 173.84 115.06 174.48 114.96L176.36 114.66V115.1C176.36 116.64 175.44 117.08 174.54 117.08ZM188.2 109.06C188 109 187.7 108.96 187.4 108.96C186.6 108.96 185.34 109.28 184.82 110.4V109.06H181.88V119H184.92V114.66C184.92 112.68 186.02 111.96 187.24 111.96C187.54 111.96 187.86 111.98 188.2 112.06V109.06ZM193.08 113.3C193.08 112.3 193.72 111.56 194.72 111.56C195.82 111.56 196.34 112.3 196.34 113.28V119H199.38V112.76C199.38 110.58 198.26 108.8 195.76 108.8C194.74 108.8 193.52 109.26 192.98 110.2V109.06H190.04V119H193.08V113.3ZM213.28 119H216.2C216.18 118.84 216.1 118.12 216.1 117.22V109.06H213.06V114.72C213.06 115.72 212.42 116.42 211.4 116.42C210.32 116.42 209.8 115.66 209.8 114.7V109.06H206.76V115.34C206.76 117.46 208.12 119.22 210.54 119.22C211.54 119.22 212.68 118.86 213.2 118C213.2 118.26 213.24 118.82 213.28 119ZM221.81 122.8V118.22C222.27 118.78 223.23 119.22 224.51 119.22C227.29 119.22 229.25 117.04 229.25 114C229.25 111.02 227.51 108.82 224.63 108.82C223.21 108.82 222.13 109.44 221.71 110.08V109.06H218.77V122.8H221.81ZM226.27 114.02C226.27 115.68 225.21 116.5 224.01 116.5C222.83 116.5 221.77 115.66 221.77 114.02C221.77 112.36 222.83 111.56 224.01 111.56C225.21 111.56 226.27 112.36 226.27 114.02ZM239.78 106.16H237.06V107.44C237.06 108.36 236.56 109.06 235.52 109.06H235.02V111.72H236.78V115.98C236.78 117.96 238.04 119.18 240.1 119.18C241.06 119.18 241.56 118.96 241.68 118.9V116.38C241.5 116.42 241.2 116.48 240.88 116.48C240.22 116.48 239.78 116.26 239.78 115.44V111.72H241.72V109.06H239.78V106.16ZM248.31 116.5C247.17 116.5 246.07 115.68 246.07 114.02C246.07 112.34 247.17 111.56 248.31 111.56C249.47 111.56 250.55 112.34 250.55 114.02C250.55 115.7 249.47 116.5 248.31 116.5ZM248.31 108.76C245.35 108.76 243.03 110.94 243.03 114.02C243.03 117.1 245.35 119.3 248.31 119.3C251.29 119.3 253.59 117.1 253.59 114.02C253.59 110.94 251.29 108.76 248.31 108.76ZM259.65 115.3C259.81 117.34 261.79 119.32 264.67 119.32C267.91 119.32 269.75 117.16 269.75 114.74C269.75 111.94 267.93 110.4 265.27 110.4C264.53 110.4 263.57 110.66 263.07 111.1L263.59 108.66H268.95V106.02H261.41L259.95 112.76C260.01 112.8 262.71 113.66 262.77 113.68C263.09 113.28 263.71 112.84 264.59 112.84C265.63 112.84 266.61 113.46 266.61 114.76C266.61 115.94 265.73 116.64 264.67 116.64C263.39 116.64 262.63 115.7 262.57 114.7L259.65 115.3ZM273.19 109.1C273.19 108.34 273.71 107.82 274.41 107.82C275.11 107.82 275.61 108.34 275.61 109.1C275.61 109.88 275.11 110.42 274.41 110.42C273.71 110.42 273.19 109.9 273.19 109.1ZM271.03 109.1C271.03 110.96 272.53 112.42 274.39 112.42C276.25 112.42 277.79 111.02 277.79 109.1C277.79 107.24 276.25 105.78 274.41 105.78C272.57 105.78 271.03 107.24 271.03 109.1ZM282.33 115.94C282.33 115.18 282.85 114.66 283.55 114.66C284.25 114.66 284.75 115.18 284.75 115.94C284.75 116.72 284.25 117.26 283.55 117.26C282.85 117.26 282.33 116.74 282.33 115.94ZM280.17 115.94C280.17 117.8 281.67 119.26 283.53 119.26C285.39 119.26 286.93 117.86 286.93 115.94C286.93 114.08 285.39 112.62 283.55 112.62C281.71 112.62 280.17 114.08 280.17 115.94ZM275.73 119L284.83 106.02H282.25L273.17 119H275.73Z" fill="white"/>
<path d="M302.39 112H303.56L300.46 104.2H299.22L296.12 112H297.28L298.1 109.82H301.55L302.39 112ZM299.81 105.32L301.16 108.82H298.48L299.81 105.32ZM305.74 107.84V105.17H307.3C308.23 105.17 308.81 105.7 308.81 106.52C308.81 107.32 308.24 107.84 307.3 107.84H305.74ZM307.5 108.81C308.94 108.81 309.91 107.83 309.91 106.51C309.91 105.2 308.94 104.2 307.5 104.2H304.66V112H305.74V108.81H307.5ZM313.04 108.67V112H314.12V108.67L316.87 104.2H315.64L313.62 107.68L311.6 104.2H310.3L313.04 108.67ZM322.58 104.2H321.71V105.69L320.37 105.22L320.12 106.01L321.48 106.46L320.61 107.6L321.28 108.11L322.14 106.92L323.05 108.12L323.72 107.61L322.82 106.46L324.18 106.01L323.93 105.22L322.58 105.68V104.2Z" fill="white"/>
<path d="M161.26 151.96V145.54H163.02C164.59 145.54 165.89 146.62 165.89 148.77C165.89 150.91 164.57 151.96 163 151.96H161.26ZM163.03 153C165.19 153 167.1 151.55 167.1 148.76C167.1 145.96 165.22 144.49 163.06 144.49H160.08V153H163.03ZM169.33 149.52C169.38 148.78 169.95 148.04 170.9 148.04C171.92 148.04 172.46 148.69 172.48 149.52H169.33ZM172.65 151.02C172.43 151.67 171.97 152.18 171.03 152.18C170.06 152.18 169.31 151.46 169.29 150.43H173.63C173.64 150.36 173.65 150.21 173.65 150.07C173.65 148.27 172.65 147.05 170.88 147.05C169.43 147.05 168.12 148.29 168.12 150.1C168.12 152.06 169.48 153.18 171.02 153.18C172.36 153.18 173.29 152.38 173.61 151.36L172.65 151.02ZM176.22 155.28V152.22C176.53 152.74 177.2 153.16 178.09 153.16C179.78 153.16 180.78 151.83 180.78 150.11C180.78 148.43 179.86 147.1 178.13 147.1C177.19 147.1 176.51 147.56 176.2 148.13V147.23H175.11V155.28H176.22ZM179.62 150.11C179.62 151.3 178.96 152.15 177.92 152.15C176.89 152.15 176.2 151.3 176.2 150.11C176.2 148.96 176.88 148.09 177.92 148.09C178.98 148.09 179.62 148.96 179.62 150.11ZM184.69 152.17C183.73 152.17 182.89 151.45 182.89 150.11C182.89 148.78 183.73 148.06 184.69 148.06C185.65 148.06 186.49 148.78 186.49 150.11C186.49 151.45 185.65 152.17 184.69 152.17ZM184.69 147.05C182.96 147.05 181.74 148.36 181.74 150.11C181.74 151.87 182.96 153.18 184.69 153.18C186.42 153.18 187.64 151.87 187.64 150.11C187.64 148.36 186.41 147.05 184.69 147.05ZM188.54 151.5C188.64 152.16 189.31 153.18 190.89 153.18C192.32 153.18 193 152.21 193 151.39C193 150.54 192.45 149.9 191.4 149.67L190.46 149.47C190.02 149.37 189.8 149.12 189.8 148.77C189.8 148.37 190.18 148 190.76 148C191.67 148 191.91 148.66 191.96 148.96L192.96 148.59C192.84 148.07 192.35 147.04 190.76 147.04C189.63 147.04 188.71 147.88 188.71 148.86C188.71 149.68 189.25 150.29 190.15 150.48L191.13 150.7C191.61 150.81 191.87 151.08 191.87 151.44C191.87 151.85 191.52 152.21 190.89 152.21C190.07 152.21 189.62 151.73 189.55 151.13L188.54 151.5ZM195.62 153V147.23H194.5V153H195.62ZM194.26 145.04C194.26 145.48 194.62 145.84 195.06 145.84C195.52 145.84 195.88 145.48 195.88 145.04C195.88 144.58 195.52 144.22 195.06 144.22C194.62 144.23 194.26 144.59 194.26 145.04ZM199.05 145.4H198.02V146.34C198.02 146.84 197.76 147.23 197.13 147.23H196.82V148.25H197.92V151.42C197.92 152.46 198.54 153.06 199.53 153.06C199.91 153.06 200.2 152.99 200.3 152.95V151.99C200.2 152.01 200 152.04 199.86 152.04C199.27 152.04 199.06 151.78 199.06 151.25V148.25H200.31V147.23H199.06V145.4H199.05ZM212.3 153V148.84H208.23V149.9H211.18C211.13 150.78 210.45 152.12 208.55 152.12C207.03 152.12 205.59 151 205.59 148.75C205.59 146.49 207.08 145.4 208.6 145.4C209.92 145.4 210.92 146.12 211.3 147.34L212.37 146.88C211.88 145.34 210.45 144.31 208.6 144.31C206.5 144.31 204.39 145.86 204.39 148.74C204.39 151.62 206.38 153.18 208.52 153.18C209.95 153.18 210.87 152.47 211.24 151.8L211.35 153H212.3ZM217.04 153.18C218.77 153.18 220.1 152.1 220.1 150.1V144.5H218.92V150.07C218.92 151.37 218.24 152.1 217.04 152.1C215.85 152.1 215.14 151.37 215.14 150.07V144.5H213.98V150.1C213.98 152.1 215.32 153.18 217.04 153.18ZM227.57 146.42C227.38 145.5 226.61 144.31 224.69 144.31C223.12 144.31 221.88 145.51 221.88 146.84C221.88 148.11 222.74 148.9 223.96 149.17L225.17 149.43C226.02 149.61 226.44 150.14 226.44 150.75C226.44 151.49 225.86 152.11 224.69 152.11C223.41 152.11 222.73 151.23 222.65 150.29L221.52 150.65C221.68 151.86 222.65 153.18 224.7 153.18C226.51 153.18 227.64 151.98 227.64 150.66C227.64 149.47 226.85 148.58 225.43 148.27L224.16 147.99C223.44 147.83 223.07 147.37 223.07 146.75C223.07 145.96 223.75 145.33 224.71 145.33C225.9 145.33 226.41 146.17 226.51 146.78L227.57 146.42ZM230.43 151.96V145.54H232.19C233.76 145.54 235.06 146.62 235.06 148.77C235.06 150.91 233.74 151.96 232.17 151.96H230.43ZM232.21 153C234.37 153 236.28 151.55 236.28 148.76C236.28 145.96 234.4 144.49 232.24 144.49H229.26V153H232.21Z" fill="white"/>
<path d="M161.26 207.96V201.54H163.02C164.59 201.54 165.89 202.62 165.89 204.77C165.89 206.91 164.57 207.96 163 207.96H161.26ZM163.03 209C165.19 209 167.1 207.55 167.1 204.76C167.1 201.96 165.22 200.49 163.06 200.49H160.08V209H163.03ZM169.33 205.52C169.38 204.78 169.95 204.04 170.9 204.04C171.92 204.04 172.46 204.69 172.48 205.52H169.33ZM172.65 207.02C172.43 207.67 171.97 208.18 171.03 208.18C170.06 208.18 169.31 207.46 169.29 206.43H173.63C173.64 206.36 173.65 206.21 173.65 206.07C173.65 204.27 172.65 203.05 170.88 203.05C169.43 203.05 168.12 204.29 168.12 206.1C168.12 208.06 169.48 209.18 171.02 209.18C172.36 209.18 173.29 208.38 173.61 207.36L172.65 207.02ZM176.22 211.28V208.22C176.53 208.74 177.2 209.16 178.09 209.16C179.78 209.16 180.78 207.83 180.78 206.11C180.78 204.43 179.86 203.1 178.13 203.1C177.19 203.1 176.51 203.56 176.2 204.13V203.23H175.11V211.28H176.22ZM179.62 206.11C179.62 207.3 178.96 208.15 177.92 208.15C176.89 208.15 176.2 207.3 176.2 206.11C176.2 204.96 176.88 204.09 177.92 204.09C178.98 204.09 179.62 204.96 179.62 206.11ZM184.69 208.17C183.73 208.17 182.89 207.45 182.89 206.11C182.89 204.78 183.73 204.06 184.69 204.06C185.65 204.06 186.49 204.78 186.49 206.11C186.49 207.45 185.65 208.17 184.69 208.17ZM184.69 203.05C182.96 203.05 181.74 204.36 181.74 206.11C181.74 207.87 182.96 209.18 184.69 209.18C186.42 209.18 187.64 207.87 187.64 206.11C187.64 204.36 186.41 203.05 184.69 203.05ZM188.54 207.5C188.64 208.16 189.31 209.18 190.89 209.18C192.32 209.18 193 208.21 193 207.39C193 206.54 192.45 205.9 191.4 205.67L190.46 205.47C190.02 205.37 189.8 205.12 189.8 204.77C189.8 204.37 190.18 204 190.76 204C191.67 204 191.91 204.66 191.96 204.96L192.96 204.59C192.84 204.07 192.35 203.04 190.76 203.04C189.63 203.04 188.71 203.88 188.71 204.86C188.71 205.68 189.25 206.29 190.15 206.48L191.13 206.7C191.61 206.81 191.87 207.08 191.87 207.44C191.87 207.85 191.52 208.21 190.89 208.21C190.07 208.21 189.62 207.73 189.55 207.13L188.54 207.5ZM195.62 209V203.23H194.5V209H195.62ZM194.26 201.04C194.26 201.48 194.62 201.84 195.06 201.84C195.52 201.84 195.88 201.48 195.88 201.04C195.88 200.58 195.52 200.22 195.06 200.22C194.62 200.23 194.26 200.59 194.26 201.04ZM199.05 201.4H198.02V202.34C198.02 202.84 197.76 203.23 197.13 203.23H196.82V204.25H197.92V207.42C197.92 208.46 198.54 209.06 199.53 209.06C199.91 209.06 200.2 208.99 200.3 208.95V207.99C200.2 208.01 200 208.04 199.86 208.04C199.27 208.04 199.06 207.78 199.06 207.25V204.25H200.31V203.23H199.06V201.4H199.05ZM210.1 209V207.91H206.1V205.31H209.72V204.21H206.1V201.59H210.1V200.5H204.93V209H210.1ZM213.29 201.4H212.26V202.34C212.26 202.84 212 203.23 211.37 203.23H211.06V204.25H212.16V207.42C212.16 208.46 212.78 209.06 213.77 209.06C214.15 209.06 214.44 208.99 214.54 208.95V207.99C214.44 208.01 214.24 208.04 214.1 208.04C213.51 208.04 213.3 207.78 213.3 207.25V204.25H214.55V203.23H213.3V201.4H213.29ZM217.17 205.6C217.19 204.75 217.65 204.08 218.51 204.08C219.52 204.08 219.85 204.73 219.85 205.53V209H220.98V205.34C220.98 204.06 220.3 203.06 218.92 203.06C218.26 203.06 217.59 203.29 217.17 203.9V200.31H216.04V209H217.17V205.6ZM223.52 205.52C223.57 204.78 224.14 204.04 225.09 204.04C226.11 204.04 226.65 204.69 226.67 205.52H223.52ZM226.84 207.02C226.62 207.67 226.16 208.18 225.22 208.18C224.25 208.18 223.5 207.46 223.48 206.43H227.82C227.83 206.36 227.84 206.21 227.84 206.07C227.84 204.27 226.84 203.05 225.07 203.05C223.62 203.05 222.31 204.29 222.31 206.1C222.31 208.06 223.67 209.18 225.21 209.18C226.55 209.18 227.48 208.38 227.8 207.36L226.84 207.02ZM232.49 203.17C232.43 203.16 232.27 203.13 232.12 203.13C231.53 203.13 230.81 203.35 230.39 204.23V203.22H229.29V209H230.42V206.11C230.42 204.84 231.06 204.33 232 204.33C232.16 204.33 232.32 204.34 232.49 204.37V203.17Z" fill="white"/>
<path d="M321.39 225H322.56L319.46 217.2H318.22L315.12 225H316.28L317.1 222.82H320.55L321.39 225ZM318.81 218.32L320.16 221.82H317.48L318.81 218.32ZM324.74 220.84V218.17H326.3C327.23 218.17 327.81 218.7 327.81 219.52C327.81 220.32 327.24 220.84 326.3 220.84H324.74ZM326.5 221.81C327.94 221.81 328.91 220.83 328.91 219.51C328.91 218.2 327.94 217.2 326.5 217.2H323.66V225H324.74V221.81H326.5ZM332.04 221.67V225H333.12V221.67L335.87 217.2H334.64L332.62 220.68L330.6 217.2H329.3L332.04 221.67ZM341.58 217.2H340.71V218.69L339.37 218.22L339.12 219.01L340.48 219.46L339.61 220.6L340.28 221.11L341.14 219.92L342.05 221.12L342.72 220.61L341.82 219.46L343.18 219.01L342.93 218.22L341.58 218.68V217.2Z" fill="white"/>
<path d="M168.54 232V229H162.7V226.28H167.98V223.5H162.7V220.8H168.52V217.82H159.54V232H168.54ZM170.36 229.26C170.36 230.84 171.62 232.28 173.8 232.28C175.12 232.28 176.08 231.72 176.6 230.88C176.6 231.56 176.68 231.92 176.7 232H179.44C179.42 231.9 179.32 231.24 179.32 230.46V225.6C179.32 223.56 178.14 221.76 174.92 221.76C172 221.76 170.68 223.64 170.56 225.06L173.2 225.6C173.26 224.86 173.84 224.14 174.9 224.14C175.86 224.14 176.36 224.64 176.36 225.22C176.36 225.56 176.18 225.82 175.64 225.9L173.3 226.26C171.66 226.5 170.36 227.5 170.36 229.26ZM174.54 230.08C173.7 230.08 173.36 229.58 173.36 229.06C173.36 228.36 173.84 228.06 174.48 227.96L176.36 227.66V228.1C176.36 229.64 175.44 230.08 174.54 230.08ZM188.2 222.06C188 222 187.7 221.96 187.4 221.96C186.6 221.96 185.34 222.28 184.82 223.4V222.06H181.88V232H184.92V227.66C184.92 225.68 186.02 224.96 187.24 224.96C187.54 224.96 187.86 224.98 188.2 225.06V222.06ZM193.08 226.3C193.08 225.3 193.72 224.56 194.72 224.56C195.82 224.56 196.34 225.3 196.34 226.28V232H199.38V225.76C199.38 223.58 198.26 221.8 195.76 221.8C194.74 221.8 193.52 222.26 192.98 223.2V222.06H190.04V232H193.08V226.3ZM213.28 232H216.2C216.18 231.84 216.1 231.12 216.1 230.22V222.06H213.06V227.72C213.06 228.72 212.42 229.42 211.4 229.42C210.32 229.42 209.8 228.66 209.8 227.7V222.06H206.76V228.34C206.76 230.46 208.12 232.22 210.54 232.22C211.54 232.22 212.68 231.86 213.2 231C213.2 231.26 213.24 231.82 213.28 232ZM221.81 235.8V231.22C222.27 231.78 223.23 232.22 224.51 232.22C227.29 232.22 229.25 230.04 229.25 227C229.25 224.02 227.51 221.82 224.63 221.82C223.21 221.82 222.13 222.44 221.71 223.08V222.06H218.77V235.8H221.81ZM226.27 227.02C226.27 228.68 225.21 229.5 224.01 229.5C222.83 229.5 221.77 228.66 221.77 227.02C221.77 225.36 222.83 224.56 224.01 224.56C225.21 224.56 226.27 225.36 226.27 227.02ZM239.78 219.16H237.06V220.44C237.06 221.36 236.56 222.06 235.52 222.06H235.02V224.72H236.78V228.98C236.78 230.96 238.04 232.18 240.1 232.18C241.06 232.18 241.56 231.96 241.68 231.9V229.38C241.5 229.42 241.2 229.48 240.88 229.48C240.22 229.48 239.78 229.26 239.78 228.44V224.72H241.72V222.06H239.78V219.16ZM248.31 229.5C247.17 229.5 246.07 228.68 246.07 227.02C246.07 225.34 247.17 224.56 248.31 224.56C249.47 224.56 250.55 225.34 250.55 227.02C250.55 228.7 249.47 229.5 248.31 229.5ZM248.31 221.76C245.35 221.76 243.03 223.94 243.03 227.02C243.03 230.1 245.35 232.3 248.31 232.3C251.29 232.3 253.59 230.1 253.59 227.02C253.59 223.94 251.29 221.76 248.31 221.76ZM259.75 229.3H265.75V232H268.91V229.3H270.99V226.66H268.91V219.02H265.15L259.75 226.1V229.3ZM265.75 226.66H262.49L265.75 222.38V226.66ZM272.52 230.12C272.52 231.22 273.44 232.18 274.56 232.18C275.68 232.18 276.62 231.22 276.62 230.12C276.62 229 275.68 228.08 274.56 228.08C273.44 228.08 272.52 229 272.52 230.12ZM278.36 228.3C278.52 230.34 280.5 232.32 283.38 232.32C286.62 232.32 288.46 230.16 288.46 227.74C288.46 224.94 286.64 223.4 283.98 223.4C283.24 223.4 282.28 223.66 281.78 224.1L282.3 221.66H287.66V219.02H280.12L278.66 225.76C278.72 225.8 281.42 226.66 281.48 226.68C281.8 226.28 282.42 225.84 283.3 225.84C284.34 225.84 285.32 226.46 285.32 227.76C285.32 228.94 284.44 229.64 283.38 229.64C282.1 229.64 281.34 228.7 281.28 227.7L278.36 228.3ZM291.9 222.1C291.9 221.34 292.42 220.82 293.12 220.82C293.82 220.82 294.32 221.34 294.32 222.1C294.32 222.88 293.82 223.42 293.12 223.42C292.42 223.42 291.9 222.9 291.9 222.1ZM289.74 222.1C289.74 223.96 291.24 225.42 293.1 225.42C294.96 225.42 296.5 224.02 296.5 222.1C296.5 220.24 294.96 218.78 293.12 218.78C291.28 218.78 289.74 220.24 289.74 222.1ZM301.04 228.94C301.04 228.18 301.56 227.66 302.26 227.66C302.96 227.66 303.46 228.18 303.46 228.94C303.46 229.72 302.96 230.26 302.26 230.26C301.56 230.26 301.04 229.74 301.04 228.94ZM298.88 228.94C298.88 230.8 300.38 232.26 302.24 232.26C304.1 232.26 305.64 230.86 305.64 228.94C305.64 227.08 304.1 225.62 302.26 225.62C300.42 225.62 298.88 227.08 298.88 228.94ZM294.44 232L303.54 219.02H300.96L291.88 232H294.44Z" fill="white"/>
<path d="M161.26 264.96V258.54H163.02C164.59 258.54 165.89 259.62 165.89 261.77C165.89 263.91 164.57 264.96 163 264.96H161.26ZM163.03 266C165.19 266 167.1 264.55 167.1 261.76C167.1 258.96 165.22 257.49 163.06 257.49H160.08V266H163.03ZM169.33 262.52C169.38 261.78 169.95 261.04 170.9 261.04C171.92 261.04 172.46 261.69 172.48 262.52H169.33ZM172.65 264.02C172.43 264.67 171.97 265.18 171.03 265.18C170.06 265.18 169.31 264.46 169.29 263.43H173.63C173.64 263.36 173.65 263.21 173.65 263.07C173.65 261.27 172.65 260.05 170.88 260.05C169.43 260.05 168.12 261.29 168.12 263.1C168.12 265.06 169.48 266.18 171.02 266.18C172.36 266.18 173.29 265.38 173.61 264.36L172.65 264.02ZM176.22 268.28V265.22C176.53 265.74 177.2 266.16 178.09 266.16C179.78 266.16 180.78 264.83 180.78 263.11C180.78 261.43 179.86 260.1 178.13 260.1C177.19 260.1 176.51 260.56 176.2 261.13V260.23H175.11V268.28H176.22ZM179.62 263.11C179.62 264.3 178.96 265.15 177.92 265.15C176.89 265.15 176.2 264.3 176.2 263.11C176.2 261.96 176.88 261.09 177.92 261.09C178.98 261.09 179.62 261.96 179.62 263.11ZM184.69 265.17C183.73 265.17 182.89 264.45 182.89 263.11C182.89 261.78 183.73 261.06 184.69 261.06C185.65 261.06 186.49 261.78 186.49 263.11C186.49 264.45 185.65 265.17 184.69 265.17ZM184.69 260.05C182.96 260.05 181.74 261.36 181.74 263.11C181.74 264.87 182.96 266.18 184.69 266.18C186.42 266.18 187.64 264.87 187.64 263.11C187.64 261.36 186.41 260.05 184.69 260.05ZM188.54 264.5C188.64 265.16 189.31 266.18 190.89 266.18C192.32 266.18 193 265.21 193 264.39C193 263.54 192.45 262.9 191.4 262.67L190.46 262.47C190.02 262.37 189.8 262.12 189.8 261.77C189.8 261.37 190.18 261 190.76 261C191.67 261 191.91 261.66 191.96 261.96L192.96 261.59C192.84 261.07 192.35 260.04 190.76 260.04C189.63 260.04 188.71 260.88 188.71 261.86C188.71 262.68 189.25 263.29 190.15 263.48L191.13 263.7C191.61 263.81 191.87 264.08 191.87 264.44C191.87 264.85 191.52 265.21 190.89 265.21C190.07 265.21 189.62 264.73 189.55 264.13L188.54 264.5ZM195.62 266V260.23H194.5V266H195.62ZM194.26 258.04C194.26 258.48 194.62 258.84 195.06 258.84C195.52 258.84 195.88 258.48 195.88 258.04C195.88 257.58 195.52 257.22 195.06 257.22C194.62 257.23 194.26 257.59 194.26 258.04ZM199.05 258.4H198.02V259.34C198.02 259.84 197.76 260.23 197.13 260.23H196.82V261.25H197.92V264.42C197.92 265.46 198.54 266.06 199.53 266.06C199.91 266.06 200.2 265.99 200.3 265.95V264.99C200.2 265.01 200 265.04 199.86 265.04C199.27 265.04 199.06 264.78 199.06 264.25V261.25H200.31V260.23H199.06V258.4H199.05ZM207.87 266.18C209.6 266.18 210.93 265.1 210.93 263.1V257.5H209.75V263.07C209.75 264.37 209.07 265.1 207.87 265.1C206.68 265.1 205.97 264.37 205.97 263.07V257.5H204.81V263.1C204.81 265.1 206.14 266.18 207.87 266.18ZM218.39 259.42C218.2 258.5 217.43 257.31 215.51 257.31C213.94 257.31 212.7 258.51 212.7 259.84C212.7 261.11 213.56 261.9 214.78 262.17L215.99 262.43C216.84 262.61 217.26 263.14 217.26 263.75C217.26 264.49 216.68 265.11 215.51 265.11C214.23 265.11 213.55 264.23 213.47 263.29L212.34 263.65C212.5 264.86 213.47 266.18 215.52 266.18C217.33 266.18 218.46 264.98 218.46 263.66C218.46 262.47 217.67 261.58 216.25 261.27L214.98 260.99C214.26 260.83 213.89 260.37 213.89 259.75C213.89 258.96 214.57 258.33 215.53 258.33C216.72 258.33 217.23 259.17 217.33 259.78L218.39 259.42ZM221.26 264.96V258.54H223.02C224.59 258.54 225.89 259.62 225.89 261.77C225.89 263.91 224.57 264.96 223 264.96H221.26ZM223.03 266C225.19 266 227.1 264.55 227.1 261.76C227.1 258.96 225.22 257.49 223.06 257.49H220.08V266H223.03ZM232.4 266.18C234.36 266.18 235.7 265.04 236.16 263.44L235.12 263.06C234.77 264.22 233.86 265.1 232.41 265.1C230.86 265.1 229.39 263.96 229.39 261.74C229.39 259.52 230.87 258.39 232.41 258.39C233.8 258.39 234.74 259.11 235.06 260.39L236.15 260.01C235.72 258.37 234.35 257.31 232.41 257.31C230.3 257.31 228.19 258.89 228.19 261.74C228.18 264.58 230.21 266.18 232.4 266.18Z" fill="white"/>
<path d="M266.39 281H267.56L264.46 273.2H263.22L260.12 281H261.28L262.1 278.82H265.55L266.39 281ZM263.81 274.32L265.16 277.82H262.48L263.81 274.32ZM269.74 276.84V274.17H271.3C272.23 274.17 272.81 274.7 272.81 275.52C272.81 276.32 272.24 276.84 271.3 276.84H269.74ZM271.5 277.81C272.94 277.81 273.91 276.83 273.91 275.51C273.91 274.2 272.94 273.2 271.5 273.2H268.66V281H269.74V277.81H271.5ZM277.04 277.67V281H278.12V277.67L280.87 273.2H279.64L277.62 276.68L275.6 273.2H274.3L277.04 277.67ZM286.58 273.2H285.71V274.69L284.37 274.22L284.12 275.01L285.48 275.46L284.61 276.6L285.28 277.11L286.14 275.92L287.05 277.12L287.72 276.61L286.82 275.46L288.18 275.01L287.93 274.22L286.58 274.68V273.2Z" fill="white"/>
<path d="M168.54 288V285H162.7V282.28H167.98V279.5H162.7V276.8H168.52V273.82H159.54V288H168.54ZM170.36 285.26C170.36 286.84 171.62 288.28 173.8 288.28C175.12 288.28 176.08 287.72 176.6 286.88C176.6 287.56 176.68 287.92 176.7 288H179.44C179.42 287.9 179.32 287.24 179.32 286.46V281.6C179.32 279.56 178.14 277.76 174.92 277.76C172 277.76 170.68 279.64 170.56 281.06L173.2 281.6C173.26 280.86 173.84 280.14 174.9 280.14C175.86 280.14 176.36 280.64 176.36 281.22C176.36 281.56 176.18 281.82 175.64 281.9L173.3 282.26C171.66 282.5 170.36 283.5 170.36 285.26ZM174.54 286.08C173.7 286.08 173.36 285.58 173.36 285.06C173.36 284.36 173.84 284.06 174.48 283.96L176.36 283.66V284.1C176.36 285.64 175.44 286.08 174.54 286.08ZM188.2 278.06C188 278 187.7 277.96 187.4 277.96C186.6 277.96 185.34 278.28 184.82 279.4V278.06H181.88V288H184.92V283.66C184.92 281.68 186.02 280.96 187.24 280.96C187.54 280.96 187.86 280.98 188.2 281.06V278.06ZM193.08 282.3C193.08 281.3 193.72 280.56 194.72 280.56C195.82 280.56 196.34 281.3 196.34 282.28V288H199.38V281.76C199.38 279.58 198.26 277.8 195.76 277.8C194.74 277.8 193.52 278.26 192.98 279.2V278.06H190.04V288H193.08V282.3ZM211.24 280.24C210.12 280.22 209.58 279.5 209.58 278.72C209.58 278.04 210.16 277.32 211.24 277.32C212.32 277.32 212.9 278.04 212.9 278.72C212.9 279.5 212.38 280.22 211.24 280.24ZM211.24 285.74C209.98 285.74 209.32 284.9 209.32 284.12C209.32 283.32 209.92 282.46 211.24 282.46C212.58 282.46 213.18 283.32 213.18 284.12C213.18 284.9 212.52 285.74 211.24 285.74ZM211.24 288.3C214.2 288.3 216.26 286.76 216.26 284.48C216.26 283.14 215.4 281.86 214.04 281.32C215.38 280.84 216.02 279.5 216.02 278.48C216.02 276.3 214.06 274.72 211.24 274.72C208.44 274.72 206.48 276.3 206.48 278.48C206.48 279.5 207.1 280.84 208.44 281.32C207.08 281.86 206.24 283.14 206.24 284.48C206.24 286.76 208.3 288.3 211.24 288.3ZM218.18 286.12C218.18 287.22 219.1 288.18 220.22 288.18C221.34 288.18 222.28 287.22 222.28 286.12C222.28 285 221.34 284.08 220.22 284.08C219.1 284.08 218.18 285 218.18 286.12ZM234.02 275.26C233.5 274.96 232.54 274.72 231.32 274.72C226.82 274.72 223.86 277.74 223.86 282.34C223.86 286.06 226.16 288.3 229.24 288.3C232.26 288.3 234.36 286.32 234.36 283.66C234.36 281.14 232.66 279.34 230.02 279.34C228.5 279.34 227.4 279.96 226.94 280.7C227.32 278.46 229 277.4 231.14 277.4C231.86 277.4 232.58 277.6 233.18 277.82L234.02 275.26ZM227.18 283.78C227.18 282.62 228.08 281.88 229.2 281.88C230.32 281.88 231.24 282.62 231.24 283.78C231.24 284.92 230.32 285.66 229.2 285.66C228.08 285.66 227.18 284.88 227.18 283.78ZM237.74 278.1C237.74 277.34 238.26 276.82 238.96 276.82C239.66 276.82 240.16 277.34 240.16 278.1C240.16 278.88 239.66 279.42 238.96 279.42C238.26 279.42 237.74 278.9 237.74 278.1ZM235.58 278.1C235.58 279.96 237.08 281.42 238.94 281.42C240.8 281.42 242.34 280.02 242.34 278.1C242.34 276.24 240.8 274.78 238.96 274.78C237.12 274.78 235.58 276.24 235.58 278.1ZM246.88 284.94C246.88 284.18 247.4 283.66 248.1 283.66C248.8 283.66 249.3 284.18 249.3 284.94C249.3 285.72 248.8 286.26 248.1 286.26C247.4 286.26 246.88 285.74 246.88 284.94ZM244.72 284.94C244.72 286.8 246.22 288.26 248.08 288.26C249.94 288.26 251.48 286.86 251.48 284.94C251.48 283.08 249.94 281.62 248.1 281.62C246.26 281.62 244.72 283.08 244.72 284.94ZM240.28 288L249.38 275.02H246.8L237.72 288H240.28Z" fill="white"/>
<path d="M267.3 168.7H268.47L265.37 160.9H264.13L261.03 168.7H262.18L263 166.52H266.45L267.3 168.7ZM264.71 162.02L266.06 165.52H263.38L264.71 162.02ZM270.65 164.54V161.87H272.21C273.14 161.87 273.72 162.4 273.72 163.22C273.72 164.02 273.15 164.54 272.21 164.54H270.65ZM272.41 165.51C273.85 165.51 274.82 164.53 274.82 163.21C274.82 161.9 273.85 160.9 272.41 160.9H269.57V168.7H270.65V165.51H272.41ZM277.95 165.37V168.7H279.03V165.37L281.78 160.9H280.55L278.53 164.38L276.51 160.9H275.21L277.95 165.37ZM287.49 160.9H286.62V162.38L285.28 161.91L285.03 162.7L286.39 163.15L285.52 164.29L286.19 164.8L287.05 163.61L287.96 164.81L288.63 164.3L287.73 163.15L289.09 162.7L288.84 161.91L287.49 162.37V160.9Z" fill="white"/>
<path d="M168.54 175V172H162.7V169.28H167.98V166.5H162.7V163.8H168.52V160.82H159.54V175H168.54ZM170.36 172.26C170.36 173.84 171.62 175.28 173.8 175.28C175.12 175.28 176.08 174.72 176.6 173.88C176.6 174.56 176.68 174.92 176.7 175H179.44C179.42 174.9 179.32 174.24 179.32 173.46V168.6C179.32 166.56 178.14 164.76 174.92 164.76C172 164.76 170.68 166.64 170.56 168.06L173.2 168.6C173.26 167.86 173.84 167.14 174.9 167.14C175.86 167.14 176.36 167.64 176.36 168.22C176.36 168.56 176.18 168.82 175.64 168.9L173.3 169.26C171.66 169.5 170.36 170.5 170.36 172.26ZM174.54 173.08C173.7 173.08 173.36 172.58 173.36 172.06C173.36 171.36 173.84 171.06 174.48 170.96L176.36 170.66V171.1C176.36 172.64 175.44 173.08 174.54 173.08ZM188.2 165.06C188 165 187.7 164.96 187.4 164.96C186.6 164.96 185.34 165.28 184.82 166.4V165.06H181.88V175H184.92V170.66C184.92 168.68 186.02 167.96 187.24 167.96C187.54 167.96 187.86 167.98 188.2 168.06V165.06ZM193.08 169.3C193.08 168.3 193.72 167.56 194.72 167.56C195.82 167.56 196.34 168.3 196.34 169.28V175H199.38V168.76C199.38 166.58 198.26 164.8 195.76 164.8C194.74 164.8 193.52 165.26 192.98 166.2V165.06H190.04V175H193.08V169.3ZM211.49 167.24C210.37 167.22 209.83 166.5 209.83 165.72C209.83 165.04 210.41 164.32 211.49 164.32C212.57 164.32 213.15 165.04 213.15 165.72C213.15 166.5 212.63 167.22 211.49 167.24ZM211.49 172.74C210.23 172.74 209.57 171.9 209.57 171.12C209.57 170.32 210.17 169.46 211.49 169.46C212.83 169.46 213.43 170.32 213.43 171.12C213.43 171.9 212.77 172.74 211.49 172.74ZM211.49 175.3C214.45 175.3 216.51 173.76 216.51 171.48C216.51 170.14 215.65 168.86 214.29 168.32C215.63 167.84 216.27 166.5 216.27 165.48C216.27 163.3 214.31 161.72 211.49 161.72C208.69 161.72 206.73 163.3 206.73 165.48C206.73 166.5 207.35 167.84 208.69 168.32C207.33 168.86 206.49 170.14 206.49 171.48C206.49 173.76 208.55 175.3 211.49 175.3ZM218.43 173.12C218.43 174.22 219.35 175.18 220.47 175.18C221.59 175.18 222.53 174.22 222.53 173.12C222.53 172 221.59 171.08 220.47 171.08C219.35 171.08 218.43 172 218.43 173.12ZM234.27 162.26C233.75 161.96 232.79 161.72 231.57 161.72C227.07 161.72 224.11 164.74 224.11 169.34C224.11 173.06 226.41 175.3 229.49 175.3C232.51 175.3 234.61 173.32 234.61 170.66C234.61 168.14 232.91 166.34 230.27 166.34C228.75 166.34 227.65 166.96 227.19 167.7C227.57 165.46 229.25 164.4 231.39 164.4C232.11 164.4 232.83 164.6 233.43 164.82L234.27 162.26ZM227.43 170.78C227.43 169.62 228.33 168.88 229.45 168.88C230.57 168.88 231.49 169.62 231.49 170.78C231.49 171.92 230.57 172.66 229.45 172.66C228.33 172.66 227.43 171.88 227.43 170.78ZM237.99 165.1C237.99 164.34 238.51 163.82 239.21 163.82C239.91 163.82 240.41 164.34 240.41 165.1C240.41 165.88 239.91 166.42 239.21 166.42C238.51 166.42 237.99 165.9 237.99 165.1ZM235.83 165.1C235.83 166.96 237.33 168.42 239.19 168.42C241.05 168.42 242.59 167.02 242.59 165.1C242.59 163.24 241.05 161.78 239.21 161.78C237.37 161.78 235.83 163.24 235.83 165.1ZM247.13 171.94C247.13 171.18 247.65 170.66 248.35 170.66C249.05 170.66 249.55 171.18 249.55 171.94C249.55 172.72 249.05 173.26 248.35 173.26C247.65 173.26 247.13 172.74 247.13 171.94ZM244.97 171.94C244.97 173.8 246.47 175.26 248.33 175.26C250.19 175.26 251.73 173.86 251.73 171.94C251.73 170.08 250.19 168.62 248.35 168.62C246.51 168.62 244.97 170.08 244.97 171.94ZM240.53 175L249.63 162.02H247.05L237.97 175H240.53Z" fill="white"/>
</g>
<defs>
<linearGradient id="paint0_linear" x1="97.9719" y1="51.6009" x2="434.311" y2="361.397" gradientUnits="userSpaceOnUse">
<stop offset="0.1079" stop-color="#0032EB"/>
<stop offset="1" stop-color="#072E85"/>
</linearGradient>
<clipPath id="clip0">
<rect width="591" height="435" fill="white"/>
</clipPath>
</defs>
</svg>
