<svg width="26" height="26" viewBox="0 0 26 26" fill="none" xmlns="http://www.w3.org/2000/svg">
<path d="M13 26C20.1797 26 26 20.1797 26 13C26 5.8203 20.1797 0 13 0C5.8203 0 0 5.8203 0 13C0 20.1797 5.8203 26 13 26Z" fill="#224DDA"/>
<path d="M13.0016 7.80751L17.6215 10.3903V15.5812L13.0147 18.1798L8.39809 15.6034V10.4157L13.0016 7.80751ZM13.0016 4L11.3075 4.95188L6.69416 7.56002L5 8.5119V17.5135L6.69416 18.4654L11.314 21.0481L13.0081 22L14.7023 21.0481L19.3058 18.4463L21 17.4944V8.48017L19.3058 7.52829L14.6893 4.95188L12.9951 4H13.0016Z" fill="white"/>
</svg>
